<?xml version="1.0" encoding="UTF-8"?>
<svg xmlns="http://www.w3.org/2000/svg" xmlns:xlink="http://www.w3.org/1999/xlink" id="characters" viewBox="0 0 1844 1254">
  <defs>
    <style>.cls-1{opacity:0;}.cls-1,.cls-2{fill:#fff;}.cls-3{fill:#69a8b2;}.cls-4{fill:#eb9367;}.cls-5{fill:#f1eff0;}.cls-6{fill:#ee8867;}.cls-7{fill:#f23475;}.cls-8{fill:#997b9c;}.cls-9{fill:#993900;}.cls-10{fill:#6d2405;}.cls-11,.cls-12{fill:#6d336b;}.cls-13,.cls-14{fill:#9ca4b0;}.cls-15{fill:#91a9bc;}.cls-16,.cls-17{fill:#c1e8ef;}.cls-18{fill:#666;}.cls-19{fill:#333;}.cls-20{fill:#aec0d3;}.cls-21{fill:#a54b1a;}.cls-22{fill:#bd5017;}.cls-23{fill:#a74b1a;}.cls-24{fill:#dc7559;}.cls-25{fill:#de8058;}.cls-26{fill:#cbcbcb;}.cls-27{fill:#dbf2f5;}.cls-28,.cls-29{fill:#202936;}.cls-30{fill:#090b0f;}.cls-31{fill:#88d3de;}.cls-32{fill:#953a0c;}.cls-33,.cls-34{fill:#973a0c;}.cls-35{fill:#87d1dc;}.cls-36{fill:#641301;}.cls-37,.cls-38,.cls-39{fill:#48747b;}.cls-40{fill:#391853;}.cls-41{fill:#381c52;}.cls-42,.cls-43{fill:#3a4a61;}.cls-44{fill:#353738;}.cls-45,.cls-46{fill:#851c40;}.cls-47{fill:#2e3233;}.cls-48{fill:#605b3f;}.cls-49{fill:#74c5cc;}.cls-50{fill:#776682;}.cls-51{fill:#4e2420;}.cls-52{fill:#4d4d4d;}.cls-53{fill:url(#New_Gradient_Swatch_1);}.cls-17{opacity:.2;}.cls-38{opacity:.6;}.cls-39,.cls-46,.cls-34,.cls-29,.cls-14,.cls-12{opacity:.5;}.cls-43{opacity:.4;}</style>
    <linearGradient id="New_Gradient_Swatch_1" x1="516.6" y1="698.2" x2="1496.6" y2="698.2" gradientUnits="userSpaceOnUse">
      <stop offset="0" stop-color="#351b50"></stop>
      <stop offset="0" stop-color="#3e2054"></stop>
      <stop offset=".5" stop-color="#703d6d"></stop>
      <stop offset=".8" stop-color="#90507d"></stop>
      <stop offset="1" stop-color="#9c5783"></stop>
    </linearGradient>
  </defs>
  <path class="cls-28" d="m1506.8,387.1s25.8-24.6,17-57.6c-8.8-33-40.5-23-44.3-47.3-3.8-24.3,3-34.6-10.8-53.9-13.8-19.3-63.5,8.8-63.5,8.8l-11.8,73.5s-28.6,27.8-22.6,43.4c6,15.6,135.9,33.1,135.9,33.1Z"></path>
  <path class="cls-28" d="m1531.3,358c-.3,0-.7,0-1-.1-.9-.4-1.2-1.5-.8-2.4,0-.1,5.9-12.6.7-31-4.5-15.9-20.9-22.1-34.2-27.2-2.1-.8-4.1-1.5-5.9-2.3-14.2-5.8-16.2-32.9-16.3-34,0-1,.7-1.8,1.6-1.9,1,0,1.8.6,1.9,1.6,0,.3,2,26,14.2,31.1,1.8.7,3.7,1.5,5.8,2.3,13.2,5,31.3,11.9,36.3,29.5,5.5,19.7-.7,33-1,33.5-.3.5-.8.9-1.3,1Z"></path>
  <path class="cls-7" d="m1530,474c0-.2-.2-.3-.3-.5-3.5-5.4-7-12.1-8.2-18.4-.3-1.6-.2-3.1-.1-4.7,1.4-24.6,2.9-50.7-.4-75.2-3-21.9-17.2-24.3-28.4-30.8-11.2-6.5-29-16-29-16l.6,103.5,33.1,71,40.6-14.8c-2.8-4.7-5-9.6-7.9-14.1Z"></path>
  <path class="cls-43" d="m1365.4,1129c16.6,2.8,71.6,1.8,90.2,1.9,111,.8,156,.2,155.8-6.2,0-6.4-67.9-2-180.7-3.2-59.2-.5-75.4,3.7-65.3,7.4Z"></path>
  <path class="cls-6" d="m1530.2,834.9s2.3,206.8-2.8,241.3c-5.1,34.5-32,3.7-32,3.7l-1-20.9s.8-27-3-44.8c-4-18.9-17.9-71.7-21.9-125.5-4-53.8-6-93.6-6-93.6l66.7,39.8Z"></path>
  <path class="cls-11" d="m1491.9,1048.6s.8,18.3-1.5,30.4c-3.5,18.4-12.4,29.4-9.5,44.3,1.5,7.7,106.6,7,110.5,3,2.7-2.7,2.4-9,.7-12.1-4.9-9.2-15.8-11-24.7-14.6-7.6-3.1-15.5-7.6-20.9-14.2-8-10-9.5-39.3-12.4-41.3-3-2-17.4-3.5-19.4-1.5s-1,12.9-1,12.9c0,0-2.7-3.9-9-5-6-1-12.9-2-12.9-2Z"></path>
  <path class="cls-2" d="m1480.9,1123.3c-.9-4.7-.7-9.1.2-13.4,13.5,6.2,75.5,4.4,75.5,4.4,4.5-10.5,18-10.3,25.7-9,5.7.6,8.4,2.3,10.7,6.5,1.7,3.1,1.2,11.7-1.5,14.4-4,4-109,4.7-110.5-3Z"></path>
  <path class="cls-40" d="m1517.1,1064.4c7.6,0,15.1,0,22.7,0,3.4,0,3.4,5.2,0,5.3-7.6.2-15.1.4-22.7.5-3.7,0-3.7-5.8,0-5.8Z"></path>
  <path class="cls-40" d="m1523.4,1078.6c6.6,0,13.2-.4,19.9-.8,2.9-.2,3.6,4.7.7,5.1-6.8.9-13.7,1.3-20.6,1.5-3.7,0-3.7-5.7,0-5.7Z"></path>
  <path class="cls-40" d="m1531,1094.1c9.1-1.7,18.8-2,28.1-2.7,3.4-.3,3.3,4.9,0,5.3-9,1.1-18.3,2.7-27.3,2.9-3,0-3.8-4.8-.7-5.4Z"></path>
  <path class="cls-6" d="m1358.9,849s10,84.7,16.9,122.5c7,37.8,16.3,57.6,19.6,91.5,3.3,33.9,35.2,23,35.2,23,0,0-9-160.3-7-199.2,2-38.8,4-67.7,4-67.7l-68.7,29.9Z"></path>
  <path class="cls-11" d="m1378.9,1103.1c4.6-4.4,13.9-15,14.8-20,1-5-2.9-32.1-1.9-33.1,1-1,1.7-.8,1.7-.8,0,0-3-6-1-8,2-2,30.9-2.1,32.9-1.2,2,1,2,9.9,2,9.9l5-2s2.1,18.9,5.1,31.8c2.7,11.5,6.1,34.8,5.5,41.3-1.7,1.2-4.2,1.1-6,1.9-1.6.7-2.9,2-4.5,2.7-4.7,2.4-10.5,1.7-15.6,2.2-.3,0-.6.1-.8.3-15.4.9-36.1,1.3-38.1-1.3-3-4-6.2-17.1.9-23.9Z"></path>
  <path class="cls-2" d="m1376,1107.6c2-2.6,3.3-4.4,26.7-4.4s21.6,4.5,26.1,6.3c2.1-.3,3.7-.7,4.4-1.1.2-.1.4-.3.5-.5,1-.6,1.8-1.3,2.8-2,1.6-1.2,3.5-1.6,5.4-1.8,1,7.4,1.5,14.1,1.2,17.1-1.7,1.2-4.2,1.1-6,1.9-1.6.7-2.9,2-4.5,2.7-4.7,2.4-14.3,2.5-14.5,2.6-15.4.9-38,1.1-39.9-1.4-2.4-3.2-5-12.5-2.1-19.5Z"></path>
  <path class="cls-40" d="m1396.4,1062.7c8.4-.1,16.8,0,25.1.2,3.5,0,3.5,5.4,0,5.5-8.4,0-16.8.3-25.1.2-3.7,0-3.7-5.7,0-5.8Z"></path>
  <path class="cls-40" d="m1398.4,1077.2c8.4-.5,17,0,25.4.2,3.3.1,3.3,5,0,5.2-8.4.3-17,.7-25.4.2-3.6-.2-3.7-5.5,0-5.7Z"></path>
  <path class="cls-40" d="m1392.6,1090.9c9.3-.1,18.6,0,27.8.3,3.4,0,3.4,5.3,0,5.3-9.3.2-18.6.4-27.8.3-3.8,0-3.8-5.8,0-5.9Z"></path>
  <path class="cls-7" d="m1346,737.1c-4.6-67.1-5.5-142.5,17.9-232.6,26.3-101.7,129.3-15.2,129.3-15.2,0,0,45.1,119,75.4,406,0,0-29.4,21.2-104.9,26.7-75.4,5.5-126.9,5.5-127.9,2.8-.9-2.8,14.7-120.5,10.1-187.6Z"></path>
  <path class="cls-45" d="m1344.5,899.5c36.7,7.4,75.7,2.9,112.4-2.1,36.6-5,72.7-13.1,108.2-23.6,2.7-.8,3.8,3.3,1.1,4.1-55.7,17.7-115,28.8-173.5,30.5-16.7.5-33.3-.4-49.7-3.7-3.4-.7-2-6,1.4-5.3Z"></path>
  <path class="cls-46" d="m1356.3,881.2c5.7-49.4,12.1-98.5,9-148.4-1.5-24-3.8-47.9-4-72-.2-24.4.9-48.7,3.5-73,2.8-26.6,6.9-53.3,13.3-79.3.4-1.5,2.6-.9,2.3.6-9.8,47.8-16,95.8-16,144.7,0,24.6,2,49.1,3.8,73.6,1.7,24.2,1.7,48.4.2,72.6-1.8,27.3-5,54.5-8.7,81.6-.2,1.8-3.4,1.4-3.2-.4Z"></path>
  <path class="cls-45" d="m1351.1,566.6c26.5-12.8,89-42.8,89.2-42.6l-81.5,1.9c-3.1,13.9-5.7,27.5-7.7,40.8Z"></path>
  <path class="cls-7" d="m1425.8,505.9s65.1-8.3,74.5,0c0,0,4.7-9.5,3.5-17.7-1.2-8.3-7.1-21.3-2.4-35.5,4.7-14.2,14.2-24.8,11.8-37.9-2.4-13-17.7-45-16.6-55.6,1.2-10.6-3.5-14.2-3.5-14.2,0,0-37.9-18.9-43.8-28.4-5.9-9.5-39,7.1-39,7.1,0,0-15.4,8.3-41.4,16.6-26,8.3-25.2,16.4-25.2,16.4l7.4,149.3h74.5Z"></path>
  <path class="cls-45" d="m1510.7,400.3c-4.8-12.7-8.5-25.2-12-38.3-.4-1.5-2.8-1.2-2.7.4.7,11.8,4.6,23.3,8.8,34.3,2.2,5.8,4.6,11.7,5,17.9.5,7.3-2,14.3-4.9,20.8-4.4,9.9-10,19.6-10.6,30.7-.3,4.8.7,9.4,2.6,13.9,3,7,4.9,12.4,3.3,20.1-.6,2.7,3.1,3.7,4,1.1,1.6-4.5,1.7-9.4.5-14-1.7-6.2-5.5-11.4-5.9-18-.7-13.3,7.7-24.9,12.2-36.8,4.1-11,3.7-21-.4-32Z"></path>
  <path class="cls-46" d="m1462.9,331.4c-.1-1.4-2.3-1.5-2.2,0,.7,14.5-12.7,25.5-26.3,26.7-16.2,1.3-27-12.2-31.2-26.5-.3-1.2-2.1-.7-1.8.5,2.2,8,6.3,15.8,12.5,21.4,5.9,5.4,13.6,7.6,21.5,6.8,14.3-1.5,28.9-13.5,27.7-28.9Z"></path>
  <path class="cls-7" d="m1449.2,521.6s-110.9,30.4-133.4,5.6c-22.5-24.8-8.3-47.3-8.3-47.3,0,0-7.1-8.3,3.5-16.6,0,0,11.8-35.5,16.6-58,4.7-22.5,8.3-41.4,17.7-53.2,9.5-11.8,30.8,17.7,30.8,42.6s-3,63.3-10.1,70.4c0,0,4.7,11.8-3.5,20.1,0,0,52,4.4,79.2-1.3l7.4,37.8Z"></path>
  <path class="cls-45" d="m1436.4,484c-18.1,1.2-37,2.5-55.1.5-4-.4-7.9-1-11.9-.5-1.6.2-2.9.4-4.1.4,3.4-4.7,2.6-9.2,2.3-14.7-.3-4.6,2.2-6.4,4-10.3,1.3-2.7,2.3-5.6,3-8.5,1.7-7,2-14.3,2.4-21.4.4-8,1.1-16.2.3-24.2-.2-1.8-2.5-1.7-2.7,0-1.7,14.8.1,30.1-3.6,44.6-.9,3.5-2.2,6.9-4,10-1,1.7-2.6,3.3-3.4,5.2-.7,1.7-.4,3.3-.2,5,.6,4.7,1,8.3-1.9,12.4-.3.4-.4.8-.4,1.1,0,0-.2,0-.2,0-7-2.8-15-1.3-22.1.4-2.3.6-1.3,3.8,1,3.5,4.3-.7,8.7-1.6,13.1-1.4,4,.2,6.9,2.7,10.7,3.2,2.7.4,6.1-1.1,8.9-1.1,4,0,8,.7,12,1,17,1.5,35-1.1,51.9-2.6,2.7-.2,2.7-2.8,0-2.6Z"></path>
  <path class="cls-46" d="m1363,368.2c-5-6.8-13.3-12.1-21.9-9.1-1,.3-.6,1.9.4,1.6,9.4-2.7,17.2,4.3,21.8,11.8,4.9,7.9,7.3,16.3,10,25.1.4,1.3,2.1.7,1.9-.5-1.4-9.9-6.3-20.8-12.3-28.8Z"></path>
  <path class="cls-30" d="m1437.6,489.4s-5.9,24.8,4.7,30.8c10.6,5.9,16.6-5.9,16.6-11.8s-21.3-18.9-21.3-18.9Z"></path>
  <path class="cls-6" d="m1438.2,488.1c3.7-5.5,6.6-11.7,8.4-18.1.6-2.1,1.3-4.6,3.3-5.6.4-.2.8-.3,1.1-.6,1-.8.9-2.3,1.1-3.6.3-2.2,1.7-4.1,3.5-5.4,1.8-1.3,3.8-2.1,5.9-2.9,5.6-2.2,11.2-4.3,16.7-6.5,1.5-.6,3.2-1.1,4.6-.4,1.9,1,2.1,3.7,1.5,5.7,3.3,1,5.6,4.3,7.9,6.9,2.2,2.5,4.7,4.9,7.3,7,1.2,1,2.6,2.1,2.5,3.7,0,1.4-1.2,2.5-2.5,3-2,.9-4.4.6-6.5-.1-2.1-.7-3.9-2-5.8-3.2.8,2.3,1.3,4.8,1.8,7.2.3,1.6.8,3.9-.2,5.3-.9,1.3-3,1.4-3.6,2.8-.1.3-.2.6-.2.9-.4,1.6-1.9,2.6-3.4,3.2-.3.1-.7.3-.9.6-.4.5-.3,1.1-.3,1.7,0,1.6-1,3.1-2.5,3.8-1.9.9-4.1.4-6-.2-.4-.1-.7-.3-1.1-.2-1,.2-1.1,1.6-1.4,2.4-.5,1.2-1.1,2.4-1.7,3.5-1.2,2.3-2.5,4.6-4,6.7-2.8,3.9-6.4,7.3-10.8,9.1-2.1.9-4.4,1.3-6.7,1-8.6-1.2-10-12.5-10-19.5,0-2.7.4-5.9,2-8.2Z"></path>
  <path class="cls-24" d="m1486.1,450.9c-3.2-1.4-6.6-1.1-10-.9-4.2.2-9.8,1.1-13.7,2.6-1.3.5-.3,1.2,1.2,1.2,3.3,0,8.6-.9,11.8-1.2,3.1-.3,6,0,8.9,1.3,2.1.9,3.9-2.1,1.8-3Z"></path>
  <path class="cls-24" d="m1490.6,474.1c-.6-4.5-1.7-9.3-5.2-12.5-3.4-3-7.8-4-12.2-3.9-2.1,0-2,3.1,0,3.2,3.5.2,7.2,1.3,9.8,3.8,2.7,2.7,4.8,8.1,5.5,11.6.4,2,2.4,0,2.1-2.2Z"></path>
  <path class="cls-24" d="m1471.9,491.7c-1.7-.3-3.5-1.3-5.3-1.5-1.6-.1-3.5-.5-5.1-.2-2.5.4-2.4,4-3.3,5.8-.9,1.8,1.6,3.2,2.7,1.6.5-.8.9-1.5,1.3-2.4.1-.3.3-1.1.4-1.7,2.9.2,4.7-.5,8.2.7,2.1.7,3.4-1.9,1.2-2.4Z"></path>
  <path class="cls-28" d="m1396.1,254.2s-15.4-14.1-10.2-27.3c5.3-13.2,18.7-17.2,30-21.4,8.9-3.3,28.4-7,48.7,16.9,20.3,23.9,14.4,51.1-17.7,82.8-10.9,10.7-50.8-51-50.8-51Z"></path>
  <path class="cls-6" d="m1408.1,324.3c1.1,8.8,4.8,13.3,10.4,17.6,5.3,4.1,12.6,4.8,19.1,4.7,12.9-.4,19.6-11.7,18.6-23.2-1.9-1.6-3.6-3.5-5-5.6-10.6-16.1-5.6-32.3-5.6-32.3l-38.8,12.6c.9,8.6,1.5,17.5,1.3,26.2Z"></path>
  <path class="cls-51" d="m1435.8,297.5l-28.4,6.4c.5,6.3.8,12.6.7,19,9.5-2.1,13.1-4.5,19.4-9.3,9.1-9.9,8.3-16.1,8.3-16.1Z"></path>
  <path class="cls-6" d="m1386.9,246.8c-1.5,6.1-21.4,44.4,4,62.7,14.8,10.6,47.2.9,54.3-20,0,0,4.9,1.4,9-1.5,5.3-3.7,10.7-10.7,4.2-18.5-8.4-10.1-15.9,1.1-15.9,1.1,0,0,.4-8.2-2.7-16.3-11.3-4.1-37.7-13.8-41.7-25.6,0,0-9.1,10.1-11.2,18.1Z"></path>
  <path class="cls-24" d="m1393.7,278.8c.3-.9,1.3-1.4,2-1.2.8.2,1.5.5,2.3.7.8.3,1.2,1.2.9,2.1-.3.9-1.3,1.4-2,1.2-.8-.2-1.5-.5-2.3-.7-.8-.3-1.2-1.2-.9-2.1Z"></path>
  <path class="cls-30" d="m1413,246.9c2,.7,4.1,1,6.1,1.8,2,.8,3.9,1.9,5.8,2.8,1.8.8.4,4-1.4,3.1-2-.9-3.8-2-5.8-2.8-2-.8-4.1-1.1-6.1-1.8-1.9-.6-.5-3.8,1.4-3.1Z"></path>
  <path class="cls-30" d="m1383.2,250c1.6-1.4,3.3-1.7,5.2-2.1,2-.3,2.4,2.9.4,3.2-1.3.2-2.6.3-3.6,1.2-1.7,1.4-3.6-1-1.9-2.4Z"></path>
  <path class="cls-45" d="m1392,289.2c2.1-.1,4,.2,6.1-.2,2.3-.4,4.5-1.2,6.8-1.3.5,0,1,0,1.4.2.4.2.7.7.6,1.2-.1.4-.5.6-.9.8-4.1,2-8.7,2.9-13.2,2.5-2.4-.2-4-3-.8-3.2Z"></path>
  <path class="cls-30" d="m1413.6,265.9c.1.7.6,1.4,1.2,1.9.9.8,2.3,1.1,3.4.8,1.2-.3,2.2-1.3,2.5-2.5.3-1.2-.2-2.5-1.2-3.2-.3-.2-.7-.4-1-.5-.5-.2-1.1-.3-1.6-.3-1.7,0-3.6,2.1-3.3,3.9Z"></path>
  <path class="cls-30" d="m1381.3,265.5c1,.7,2.5.6,3.4-.2.9-.8,1.2-2.1,1.2-3.2,0-.5,0-1.1-.4-1.5-.2-.3-.5-.5-.9-.6-2.9-1-6.2,3.4-3.3,5.5Z"></path>
  <path class="cls-7" d="m1492.6,500.4s37.9,42.6,62.5,39c20.3-3,1-59.2,1-59.2l-63.5,20.2Z"></path>
  <path class="cls-30" d="m1536.1,510.3s-6.8,24.6,14.3,28.9c21.2,4.3,23.6-31.1,23.6-31.1l-38,2.2Z"></path>
  <path class="cls-6" d="m1536.1,510.3s-4.3,20,14.6,21.8c18.9,1.9,37.2-46,33.3-68.6-3.9-22.6-33.8,17.7-33.8,17.7l-14.1,29.1Z"></path>
  <path class="cls-5" d="m1551.6,507.3s-63.9-1.2-66.2-2.4c-2.3-1.3-3.4-4.5.3-8.7,3.7-4.2,44.9-61.9,49.7-64.1,4.8-2.2,69.8,2.6,73.2,5.1,3.5,2.5,1.4,5.3-1.5,9.4-5,6.9-46,58.7-50.7,59.7l-4.8,1Z"></path>
  <path class="cls-13" d="m1608.6,437.2c-3.5-2.5-68.4-7.2-73.2-5.1-4.8,2.2-46,59.9-49.7,64.1-3.7,4.2-2.6,7.4-.3,8.7.2,0,.7.2,1.6.3-.2-.7-.7-2.6.3-4.4,1.3-2.3,46.1-63.4,51-65.6,4.8-2.2,66.2,3.6,69.7,4.9,1.5.5,1.9,1.5,1.9,2.4,1-2,1-3.7-1.2-5.3Z"></path>
  <path class="cls-6" d="m1574.5,506.4c1.8-4.9,2.6-10.1,2.4-15.3,0-2.5-.4-5-.8-7.5-1.3-9.7-2.6-19.5-4.9-29-.4-1.6-.8-3.2-1.9-4.5-2.1-2.4-4.9-1.5-6.2,1-1.2,2.2-.3,4.2.2,6.5,1.2,5.5,1.8,12-1.3,17.1-.3.5-.7,1-1.2,1.2-3.4,1.4-6.6-5.8-7.9-7.9-2.6-3.7-5.1-7.5-7.7-11.2-1.7-2.5-3.8-5.2-6.8-5.4-.9,0-1.8.2-2.5.7-1.4,1.3-1,3.5-.3,5.3,2.5,6.2,6.2,11.9,8.8,18.1.5,1.2,1.8,3.9,1.2,5.2-1,2.1-2.5,0-3.3-.8-2.7-3-5.2-5.8-7.4-9.2-1.2-1.9-2.5-3.8-3.9-5.6-1.2-1.5-2.2-3.5-4.1-4.2-3.3-1.1-5.3,1.7-5.1,4.7.2,2.7,1.6,5.1,3,7.4,2.7,4.6,5.4,9.3,8.2,13.9.6,1,1.2,2.3.5,3.3-4.9-2.5-9.6-5.6-13.7-9.3-1.7-1.5-3.7-3.1-5.8-2.5-1.6.5-2.5,2.3-2.1,3.9.5,1.6,1.1,2.9,2.3,4.1,3.5,3.4,7,6.8,10.9,9.7,1.4,1,2.9,2,4,3.3,1.1,1.2,1.9,2.6,2.8,4,4,6.2,9.7,11.4,16.2,14.9,4.6,2.4,10.4,1.1,15.1-.9,4.8-2,9.5-6.2,11.3-11Z"></path>
  <path class="cls-24" d="m1538.2,509c2,1,3.2,2.8,5.3,3.7,2.2,1,4.5,3.4,6.9,3.1,2.2-.3,2.9,1.3.7,1.7-2.8.5-5.5.4-8.2-.5,0,0-.2,0-.2,0,0,0,0,0-.1,0,0,0-.2,0-.2,0-2.6-1-5.8-2.8-6.7-5.6-.5-1.5,1.2-2.9,2.6-2.2Z"></path>
  <path class="cls-24" d="m1577.1,482.3c-.3-3-3.6-1.9-3.3,1.2.3,3.1.4,6.2.6,9.4.2,2.6,2.2,4,2.3,1.4,0-3.4.8-8.6.4-12Z"></path>
  <path class="cls-13" d="m1597.7,445.3c-1.3-.8-3-.8-4.1.2-.5-.2-1.1-.1-1.7.1-1.6.7-3,1.9-3.2,3.7-.1,1.8,1,3.2,2.7,3.6,3.3.7,6.7-2,7.2-5.2.2-1-.1-1.9-1-2.4Z"></path>
  <path class="cls-50" d="m1241.3,1125.8c0,4.5-47.1,4.9-235,4.9s-138.4-.7-139.2-4.7c-.7-3.5,5.9-5.9,24.8-5.8h0c19.5-.3,44.6-.4,75.1-.4h3.9c10.2,0,21,0,32.4,0,25.1,0,50.5,0,74.9,0h8.9c64.7,0,102.3.2,124.2.8h0c27.1.8,29.9,2.3,29.9,5.2Z"></path>
  <path class="cls-23" d="m1211.7,1123.4c0,.3,0,.6-.2.8,0,.1,0,.2-.1.4-.1.2-.2.5-.4.7,0,0-.1.2-.2.2-.3.3-.6.6-1,.8-.1,0-.3.2-.4.2-.4.2-.9.4-1.3.5,0,0,0,0,0,0,0,0-.1,0-.2,0-.1,0-.2,0-.4,0,0,0-.1,0-.2,0-.1,0-.2,0-.4,0-12.1,1-104.7,2.4-114.5-3-2.1-1.2-3.8-2.6-5.2-4.4-3.9-5.3-4.7-13.9-3.7-28.4.4-6,2.1-9.2,3-23,.4-5.9.5-13.8.4-24.7,8.2-1.9,9.6-3.4,17.9-5.2,9.7-2,19.2-5.5,29-7.3-.2,5.3-.8,10.5-.9,15.8-.1,2.9,0,5.8.2,8.8,1,9.3,8,17.7,14.5,24,.4.4.8.7,1.2,1.1,7.8,7.2,17.6,13.4,27.5,17.6.4.2.8.3,1.2.5,1.1.5,2.3.9,3.4,1.3,3.6,1.4,6.9,2.6,10.1,3.8,9.5,3.6,16.6,6.7,19.2,12.6.7,1.6,1.2,2.9,1.4,4,0,.1,0,.2,0,.3.2.9.3,1.7.2,2.4Z"></path>
  <path class="cls-30" d="m1211.7,1123.4c0,.3,0,.6-.2.8,0,.1,0,.2-.1.4-.1.2-.2.5-.4.7,0,0-.1.2-.2.2-.3.3-.6.6-1,.8-.1,0-.3.2-.4.2-.4.2-.9.4-1.3.5,0,0,0,0,0,0,0,0-.1,0-.2,0-.1,0-.2,0-.4,0,0,0-.1,0-.2,0-.1,0-.2,0-.4,0-12.7,1.2-114.5,5.2-124.3-.2-2.5-1.3-3.9-3.9-4.2-7.2-.1-1.2,0-2.5.2-3.9,1.2-7.3.6-16.2,5-24.4,10.6,4.9,15.9,8.4,26.9,2.8,6.3-3.2,9.3-9.1,13.9-14.1,3.5-3.8,7.5-4.4,11.9-4.3,4.1.1,8.1,1.5,11.3,4,.4.3.7.5,1.1.9,8.4,7.4,18.5,13.7,26.4,17.3.4.2.8.4,1.2.5.4.2.8.3,1.2.5,1.1.5,2.3.9,3.4,1.3,3.6,1.4,6.9,2.6,10.1,3.8,9.5,3.6,16.6,6.7,19.2,12.6.7,1.6,1.2,2.9,1.4,4h0c0,.1,0,.2,0,.3.2.9.3,1.7.2,2.4Z"></path>
  <path class="cls-23" d="m968.8,1125.9c-2.8,3.7-73,4.8-75.1,2.2-.1-.2-.2-.3-.3-.5-.3-.4-.5-.9-.7-1.3,0-.1,0-.2-.1-.4-.1-.3-.2-.6-.3-1-.3-1.4-.4-3-.3-4.6,0-.6,0-1.2.2-1.8.4-3.6,1.4-7.2,1.9-9.6.9-3.8,2.4-7,4.1-10.1,1.9-3.6,4.2-7.1,6.1-11.1,3.1-6.4,5.6-13.1,7.4-20,.4-1.6.8-3.2,1.2-4.9.5-2,2.1-24.6.8-24.7,14.8,1.2,29.5,2.3,44.3,3.5-2.2,10.8-3.5,17.3-3.8,28.3,0,1.8,0,3.8,0,5.9.2,7.1,1.4,15.4,4.3,21.9,1,2.1,2.1,3.9,3.5,5.5,0,0,.3.8.7,2h0c.6,1.8,1.5,4.7,2.4,7.6h0c.7,2.3,1.5,4.8,2.1,6.9,1,3.4,1.8,5.9,1.7,6Z"></path>
  <path class="cls-30" d="m971.3,1122.3c0,4.9-2.7,6.4-6.8,6.9-3.1.4-6.1.6-9.2.7-8.6.4-17.1.5-25.7.4-8.5,0-15.1-.3-23.6-.8-2.3-.1-10.7.5-12.4-1.6-.1-.2-.2-.3-.3-.5-.3-.4-.5-.9-.7-1.3,0-.1,0-.2-.1-.4-.1-.3-.2-.6-.3-1-.3-1.5-.3-3-.2-4.6,0-.6,0-1.2,0-1.8.4-3.6,1.4-7.2,1.9-9.6.9-3.8,2.4-7,4.1-10.1,3.2-5.6,15.7-21.2,38.9-17.6,8.8,1.4,16.8,10.5,21.4,16.6,2.2,2.9,3.6,5,4,5.3.7.6,1.7,2.1,2.8,3.9.9,1.5,1.8,3.2,2.5,4.7h0c.7,1.5,1.4,2.8,1.7,3.5.6,1.5,1.3,3,1.6,4.6.2.8.3,1.7.3,2.5Z"></path>
  <path class="cls-40" d="m1134.4,1046.2s-.6.3-1.7.8c-6,3-27.6,13.6-46.3,21.3-15.3,6.3-28.7,10.7-30.3,7.5-2.1-4.3-4.6-83.8-11.5-178-1.5-19.9-3.1-40.5-5-61.2-3.5-38.6-7.9-77.6-13.3-113-.3-1.9-.6-3.8-.9-5.7-.2,1.4-.4,2.9-.6,4.3,0,0,0,0,0,0-5.2,34.8-9.8,70.9-15.9,114.1-1.3,9-2.6,18.4-4.1,28.1-1.7,11.2-3.4,22.5-5,33.6-11,72.6-21.7,140.4-25.5,172.4-.8,6.5-6.5,7.1-13,6.3-2.2-.2-4.6-.5-7.2-.9-13.2-1.8-30.2-4.8-42.5-8.1-9.5-2.6-16.3-5.3-16.4-7.6-.1-2.8,4.4-73.2,10.3-161.8,1.3-20.2,2.7-41.4,4.2-62.9,5.9-89,12.3-184.2,16.4-243.8,1-14.2,1.8-26.3,2.4-35.9,1-15.3,1.9-22.8,1.9-22.8l171.6-5.8s25.7,181.7,30.6,261.2c.9,13.8,1.5,30.7,1.9,49.1.4,18.9.7,39.4.8,60,.4,74.2-1,148.8-1,148.8Z"></path>
  <path class="cls-30" d="m1026.7,723.6c0,0-.2,0-.3,0-1.1-.2-1.8-1.1-1.7-2.2l15.4-116c.2-1.1,2.4-3.6,3.5-3.4,1.1.2,1.8,1.1,1.7,2.2l-16.7,117.7c-.1,1-1,1.7-1.9,1.7Z"></path>
  <path class="cls-30" d="m1038.2,634.8c3-3.7,6.9-6.7,10.1-10.4,3.4-4,6.3-8.3,8.9-12.9,1.1-1.9,3.9-.2,2.9,1.7-4.7,8.5-11.4,19-20,24-1.6.9-2.8-1.1-1.8-2.3Z"></path>
  <path class="cls-30" d="m945.4,614.8c11.1-8,18.7-19,26.2-30.3,1.2-1.9,4-.3,3,1.8-6.8,14.4-15,24.9-27.4,31.7-2.1,1.2-3.7-1.8-1.8-3.2Z"></path>
  <path class="cls-47" d="m1046.4,679.8c7.4,43.7,13.3,87.7,17.7,131.9,1.2,12.2,2.3,24.5,3.3,36.8,0,1.2-1.8,1.1-1.9,0-3.6-44-8.5-87.8-15-131.5-1.8-12.2-3.7-24.5-5.8-36.7-.2-1.1,1.5-1.5,1.7-.4Z"></path>
  <path class="cls-47" d="m1068.9,868.5c4.8,44.1,8.1,88.4,9.8,132.7.5,12.3.8,24.6,1.1,36.9,0,1.2-1.9,1-1.9-.2-.9-44.1-3.2-88.2-7.1-132.1-1.1-12.3-2.3-24.6-3.6-37-.1-1.1,1.6-1.4,1.7-.3Z"></path>
  <path class="cls-42" d="m967.7,1111.7h0c-.4,1.1-1.8,1.7-2.7,1.2h0c-.3-.2-.5-.4-.7-.8-1.9-4.1-9.1-5.7-13.1-6.8-6-1.7-12.2-2.2-18.4-2.7-2.5-.2-2.5-4.1,0-3.9,7.7.7,15.5,1.4,22.9,3.9,2.2.7,4.7,1.5,7,2.7h0c.9.5,1.8,1,2.6,1.7,1,.9,1.9,1.9,2.5,3.1.3.6.2,1.1,0,1.6Z"></path>
  <path class="cls-42" d="m1190.7,1104.1c-.2,1-1.1,1.8-2.4,1.5-12-3.5-24.3,0-36.4.4-2.5,0-2.5-3.9,0-3.9,9.6-.2,19.2-2.4,28.7-1.8,2.9.2,5.8.6,8.8,1.5,1.2.3,1.5,1.4,1.3,2.3Z"></path>
  <path class="cls-8" d="m1217.6,408.1s-14-12.8-30.4,12.8c-16.3,25.7,1.2,50.2,16.3,56,15.2,5.8,31.5-14,28-26.9-3.5-12.8-14-42-14-42Z"></path>
  <path class="cls-8" d="m1079.1,308.4s39.1,17.7,46.4,23.4c7.9,6.1,13.6,15.4,19,23.6,6.2,9.5,11.7,19.4,16.5,29.7,1.8,3.9,3.7,8.1,7.2,10.7,1.5,1.1,3.3,1.8,4.7,3,3,2.4,4.4,6.7,3.3,10.4,4.4-.2,8.3,3,10.3,6.9,2,3.9,2.6,8.3,3.3,12.6,2.5,15.3,7.3,29.5,13.5,43.6.6,1.5,1.3,3.3.4,4.6-.5.7-1.3,1.1-2,1.4-13.2,6.2-27.7,9.4-42.2,9.5-3.5,0-7.1-.2-10.5-1.3-5.3-1.7-9.7-5.6-13.2-10-3.4-4.4-6.1-9.4-7.9-14.7-1.6-4.9-2.6-10.2-5.8-14.3-1.4-1.8-3.3-3.3-5-4.9-9.4-8.6-14.6-19.6-18.1-31.6-5.9-20.3-9.4-41.4-13.1-62.1-2.4-13.5-4.7-27-6.9-40.6Z"></path>
  <path class="cls-12" d="m1132.7,338.9c2.6,22.4-1.5,45.5-11.5,65.7-.4.8-1.6,0-1.2-.7,10.2-20.8,13.8-44.2,10.9-67l1.8,2Z"></path>
  <path class="cls-23" d="m1239.4,382c1.9-2.5,3.5-5.4,3.9-8.4.5-4.3-.3-9.2-1.2-13.3-1-4.4-2.5-8.7-4.2-12.9-.9-2.3-1.8-4.3-1.8-6.9,0-.6,0-1.2.3-1.7.4-.8,1.4-1.2,2.3-1.5,1.1-.3,2.3-.6,3.4-.5,2.7.2,5,2,6.7,4,1.8,2,3.2,4.3,5.1,6.2,1.9,1.9,4.5,3.3,7.2,2.9,2.6-.4,4.7-2.5,6-4.9,2.5-4.5,3.3-9.1,4.2-14.1,1-5.2,2.3-10.3,3.8-15.4.6-1.9,1.5-4,3.3-4.6,1.8-.6,3.9.6,4.8,2.3,1,1.7,1.1,3.7,1.3,5.6.4,5.3,1,10.6.9,15.8,4.2,4.5,8.1,10.1,9.8,16,.4,1.5.7,3,.3,4.5-.2.9-.7,1.6-.9,2.5-.4,1.7.2,3.4.4,5,.2,2.8-1.1,5.7-3.3,7.5-1.2.9-2.6,1.5-3.1,3-.5,1.7-.5,3.9-.7,5.7-.1,1.2-.3,2.3-.6,3.4-.6,2.5-1.8,4.9-3.1,7.1-3.8,6.8-8.2,13.2-13.1,19.2-2.1,2.5-3.8,5.2-5.9,7.7-2.2,2.6-4.4,5.2-6.6,7.8-9,10.4-18.2,20.8-28.6,29.9-1.1,1-2.3,1.9-3.4,2.9-.5.4-1.1.8-1.8.9-.6,0-1.1,0-1.7-.3-4.4-1.6-7.3-7.1-9.2-11.4-3.6-8.1-4.9-17.2-3.7-26,.5-3.8,1.5-7.6,3.7-10.8,1.5-2.2,3.5-4,5.4-5.8,6.2-5.8,12.1-12,17.5-18.6.8-.9,1.6-1.9,2.4-3Z"></path>
  <path class="cls-33" d="m1291.4,355.6c-2-2.8-4.1-5.5-6.6-7.8-2.3-2.2-3.9-4.6-4.1-7.9-.2-1.8-.2-4.6,2-5.2.8-.2,1.7-.1,2.5.2.1-.8-.3-1.6-1-2.1-2.2-1.8-5.1-1.4-6.4,1.2-1.4,2.8-.4,6.7.6,9.5-3.2-2.2-6.4,1-6.2,4.4.3,4.1,2.1,8,3.4,12-2-1.5-4.4-2.3-6.6-.5-2.7,2.2-1.9,6.4-1.2,9.3,1.6,6.4,3.5,12.2,3.9,18.8.1,2,3.1,1.9,3.1-.2,0-7-2.1-13-3.7-19.8-.5-2-1.8-6.5,2.7-4.7,1.1.4,2.1,2.2,3,3.1,2.6,2.9,5,6.1,7.2,9.3,1.3,1.8,4.1,0,2.9-1.9-2.1-3.2-4.4-6.4-7-9.2-.4-3.2-1.2-6.2-2.1-9.2-.5-1.7-1.5-3.5-1.6-5.3-.5-1.1-.3-2.2.6-3.3,4.8,2.4,8.5,6.9,11.7,11.2,1.3,1.8,4.2,0,2.9-1.9Z"></path>
  <path class="cls-11" d="m1203,473.9c-19.1-6-20.9-35.6-15.1-50.8.9-2.4-.8-3.4-1.8-1.1-7,17.7-5.8,49.3,15.7,56.2,2.8.9,4-3.5,1.2-4.3Z"></path>
  <path class="cls-8" d="m1124.7,358.4c-.6,4.6-4.4,16.3-8.9,30.8-3.2,10.3-6.7,21.9-9.6,33.3h0c-.3,1-.5,1.9-.7,2.9-3.6,14.3-6.1,28-5.8,38,.8,29.9,11.3,42.8,10.5,52.5-.8,9.7-6.2,25.9-6.2,25.9,0,0-39.8,13.7-55.1,15.3-15.3,1.6-53.3-1.6-80-8.1-26.7-6.5-39.4-3.1-39.4-3.1,0,0-3.1-3.4-5.1-7.8-1.1-2.4-1.9-5.1-1.6-7.7.3-2.7,1.4-7.1,2.6-11.6,2.1-7.5,4.6-15,4.6-15v-2.9c-.1,0-1.9-39.7-1.9-39.7l-.2-4.3v-.7s-.4-9.6-.4-9.6l-.2-5.1-.2-4.6-1.1-26-10-66s0,0,0,0c.2-.3,3.9-5.8,9.6-11.4.4-.4.8-.8,1.3-1.2,3.9-3.7,8.6-7.3,13.7-9.4,13.7-5.6,45.2-11.3,58.1-20.2,0,0,0,0,0,0,0,0,0,0,0,0,12.9-8.9,62.2-3.2,62.2-3.2,0,0,.2,0,.5.3,1.9.9,8.7,4.3,17.7,8.7,0,0,0,0,0,0,7,3.4,15.4,7.4,23.7,11.2,21,9.7,23.4,26.7,21.8,38.8Z"></path>
  <path class="cls-11" d="m1050.5,393.1c-6.8,20.7-13.6,41.4-17.3,62.9-1.8,10.5-2.9,21.2-2.9,31.9,0,5.4.3,10.9,1,16.3.6,5.3,1.8,10.5,2.3,15.8.2,2.9.2,5.8-.4,8.7-.6,2.8-1.7,5.4-2.8,8-1,2.6-1.9,5.2-2.4,8-.5,2.8-.7,5.6-2.2,8.2-.5.9.9,1.7,1.4.8,2.3-4.2,2-9.2,3.6-13.6,1.6-4.6,3.8-8.8,4.4-13.7.6-5.2-.4-10.4-1.2-15.5-.9-5.5-1.5-11.1-1.8-16.7-1-22,3.1-43.9,8.9-65,3.3-12,7.1-23.8,11-35.7.3-.9-1.1-1.3-1.4-.4Z"></path>
  <path class="cls-11" d="m1032.5,347.8c-6.6,3.7-12.6,8.2-18,13.6-8.4-18-18.4-35.4-30.1-51.5-1.4-2-4.7-.1-3.3,1.9,11.7,17.4,22.1,35.6,30.7,54.7.6,1.3,2.7,1.5,3.6.5,5.7-6.1,11.5-13.3,18.8-17.4,2.6-1.5.8-3.3-1.8-1.9Z"></path>
  <path class="cls-11" d="m1076.4,307.7c-1.2-2.7-3.5-.3-2.3,2.3,5.7,13,8.9,30.3,8.8,44.9-4.2-4.2-8.9-7.8-14.3-10.4-2.2-1.1-4.1,2-1.9,3.3,6.3,4,11.9,8.4,16.7,14.2,1.4,1.7,3.7.2,3.9-1.6,1.4-16.5-3.8-37.8-10.8-52.8Z"></path>
  <path class="cls-11" d="m1121.5,374.2c-10.1,25.1-17,51.5-20.8,78.2-.4,2.9,4.1,4.2,4.5,1.2,3.8-26.9,9.4-53,19.1-78.3,1-2.6-1.8-3.7-2.8-1.2Z"></path>
  <path class="cls-11" d="m1033.2,494.5l-103.4,41.2-5.4,2.4c-1.1-2.4-1.9-5.1-1.6-7.7.8-7.3,7.3-26.7,7.3-26.7v-2.9c-.1,0,103.1-6.4,103.1-6.4Z"></path>
  <path class="cls-8" d="m960.8,461.8s-8.9-11.3-33.1-4.8c0,0,4-8.1-2.4-12.9,0,0,21.8-25.8,25.8-42,4-16.2-8.9-73.5-19.4-72.7-10.5.8-53.3,73.5-54.9,75.1-1.6,1.6-14.5,5.7-17,13.7-2.4,8.1,0,12.1,0,12.1,0,0-17.8,10.1-16.9,19.8.8,9.7,1.5,12.9-2.3,18.7-11.3,16.9-11.3,34.7,10.5,44.4,21.8,9.7,63.7.3,63.7.3,0,0,5.7,6.5,17,5.7,11.3-.8,17.8-1.6,21.8-19.4,4-17.8,7.3-38,7.3-38Z"></path>
  <path class="cls-23" d="m1044.6,464.8c-.4,1.8-1.6,3.4-1.6,5.3,0,2.8,2.3,5.3,1.6,8-.6,2.1-2.9,3.4-3.5,5.5-.3,1-.1,2-.2,3.1-.2,3.4-2.8,6.4-5.9,7.9-3.1,1.5-6.6,1.9-10,2.2-8.3.8-16.6,1.6-24.9,2.4,0-6.6,1.3-13.3,3.5-19.5,1.4-3.9,3.1-7.6,4.9-11.4,1.3-2.7,2.6-5.4,4.7-7.6,2-2.2,4.7-3.7,7.2-5.2,3.5-2.1,7.1-4.1,11.1-4.9,2.3-.4,4.7-.4,6.7.8,1,.6,1.9,1.4,2.6,2.3,1.3,1.7,1.7,3.3,2.5,5.2.8,2.1,1.9,3.6,1.3,6Z"></path>
  <path class="cls-23" d="m1003.7,440.2c.9-.9,1.9-1.8,3-2.4,1.4-.8,3.1-1.1,4.7-1.4,7.3-1.7,14.3-4.8,20.5-9.2,1.2-.9,2.6-1.8,4.1-1.7,2.2.2,3.5,2.6,3.8,4.8.8,5.9-2.7,11.7-7.3,15.4-4.7,3.7-10.5,5.6-16.1,7.4-8.6,2.8-17.5,5.7-26.5,5.2-2.1-.1-3.7-1.5-2.3-3.6,1-1.5,3.3-2.4,4.7-3.5,4.2-3.3,7.7-7.4,11.6-11.1Z"></path>
  <path class="cls-31" d="m1051.8,432.6s-19.8-2.3-24.5,8.2c-4.7,10.5,11.7,24.5,18.7,30.4,7,5.8,21,12.8,21,12.8l-3.5-16.3s-2.9,6.4-5.3,5.3c-2.3-1.2-16.3-11.7-19.8-22.2-3.5-10.5,2.3-12.8,14-11.7,11.7,1.2-.6-6.4-.6-6.4Z"></path>
  <path class="cls-23" d="m947.9,507.8s0,0,0,0c9.9-2.1,20-3.3,30.1-4.7,11.9-1.8,23.7-3.7,35.5-5.7,1.7-.3,3.5-.6,5-1.5,3.3-2,4.4-6.1,5-9.9.6-4.1,1-8.2,1.1-12.4,0-2.6.3-5.1.6-7.7.2-1.8-.4-4.3,1.2-5.6.3-.3.7-.5,1.1-.6,4.2-2,8.4-3.9,12.5-5.9,2-.9,3.8-1.7,3.8-4.1,0-2.4-1.1-5-3.1-6.3-1.9-1.3-4.2-1.6-6.5-1.7-8.3,0-16.4,1.3-24.5,2.8-3.4.6-6.8,1.3-10,2.6-4,1.5-7.3,3.9-11,6-3.7,2.1-7.5,3.7-11.5,4.9-3.2,1-6.4,1.7-9.7,2.1-1.6.2-3.3.5-4.9.4-1.2,0-2.3-.5-3.5.1,0,0-28.2,15.4-11.1,47.3Z"></path>
  <path class="cls-34" d="m1014.9,481c0-1.7.6-3.3.5-5.1-.2-2-1.2-3.7-.9-5.8.5-3.1,2-5.2.8-8.3-.5-1.3-1.2-2.3-2-3.4-1.6-2.2-1.8-4-1.1-6.6.3-1.3-1.5-1.8-1.9-.5-1,3-1,5.3.9,8,1.2,1.7,2.5,3.5,2.4,5.7-.1,1.9-1.2,3.6-1.5,5.5-.2,1.4.2,2.6.5,3.9.6,2.2.2,3.6,0,5.7-.3,3.9,1.9,7.5,1.9,11.4,0,1.5,2.3,1.5,2.3,0,0-3.6-1.9-6.9-2-10.4Z"></path>
  <path class="cls-33" d="m1033.8,439c-9.4-.6-20.8,2.5-29.8,5.3-2.3.7,0,1.8,2.3,1.2,9-2.3,21.1-3.1,30.4-3.5,2.6-.1-.3-2.8-2.9-2.9Z"></path>
  <path class="cls-33" d="m1041,453.5c-2,.1-5.1,1.7-7.6,2.5-2.7,1-5.6,1.7-8.3,2.6-1.8.6-2.1,2.3,0,2,2.8-.4,5.7-.5,8.5-1.2,2.8-.7,5.4-1.7,8-2.9.7-.4,1.3-.9,1.2-1.7-.2-.7-.8-1.3-1.6-1.3Z"></path>
  <path class="cls-31" d="m1046,425.6s18.7,63,21,64.2c2.3,1.2,37.4-1.2,39.7-3.5,2.3-2.3,4.7-66.5,1.2-71.2-3.5-4.7-49-3.5-61.9,10.5Z"></path>
  <path class="cls-27" d="m1101.3,424.1c-.4-4-6.6-4.1-6.3,0,.5,6.7.7,13.4.7,20.1,0,4.2,6.5,4.2,6.5,0,0-6.7-.3-13.4-.9-20.1Z"></path>
  <path class="cls-27" d="m1101.9,454.3c0-1.5-1.3-3-2.9-2.9-1.6,0-2.8,1.3-2.9,2.9,0,.8,0,1.6,0,2.5,0,1.5,1.3,3,2.9,2.9,1.6,0,2.9-1.3,2.9-2.9,0-.8,0-1.6,0-2.5Z"></path>
  <path class="cls-11" d="m958.3,457.7c-8.6-4.9-18.3-6.9-27.3-3.3.7-2.4.9-4.9.3-7.4-.6-2.8-2.2-4-.4-6.9,1.2-1.9,2.9-3.7,4.2-5.5,5.9-8.1,18-23.4,21.9-32.7,1-2.4-2.5-3.2-3.6-.8-4,9-16.7,23.1-22.4,31.1-1.8,2.5-6.2,6.1-6.4,9.5-.1,2.1,1.6,4,2.2,5.9.8,2.6.4,5.2-.7,7.6-10.2.5-20.5.5-30.7-.2-2.6-.2-4.3,2.4-1.7,2.6,8.9.8,19.4,2.5,28.3,2.3-.4.3-.8.7-1.1,1.1-12,12.2-12.4,30.1-10.1,45.9.3,2.1,4.1,1.7,3.8-.5-1.7-13.9-1.6-29.8,8.2-40.8,8.5-9.6,22.9-11.6,33.9-5.2,2.7,1.5,4.3-1.2,1.6-2.8Z"></path>
  <path class="cls-12" d="m950.9,394.9c0,1-1.4,1-1.5,0-1.1-12.4-2.7-23.4-5.4-35.6-2.1-9.4-7.3-24.5-18.4-25.9h0c.4-.4.8-.8,1.3-1.2,0,0,0,0,0,0,9.9,2,15.3,14.2,17.8,23.2,3.7,13.4,5.2,25.8,6.3,39.5Z"></path>
  <path class="cls-23" d="m1054.2,389.4c-3.1-15.1-15.2-42-17.5-45.5-10.5-16.3-38.4-38.8-39.3-39.8,33.5-25.6,31.2-65.3,31.2-65.3l23,39.7,7.9,9.9c3.7,8.1,5.4,18.1,5.8,28.6,1.3,30.6-8.1,65.8-11.1,72.4Z"></path>
  <path class="cls-23" d="m1112.2,224.9c-1.1,3.8-2,7.5-2.8,11.5-2.8,13.9-6,28.1-11.7,41.2-1.9,4.5-4.3,9.8-8.3,12.9-7.2,5.5-23.2,3.2-30.6.8-22.7-7.3-32.7-17.5-30.9-43.1,0,0-17.9-11.7-7.8-27.8,1.6-2.6,4.1-5,7.3-5,3.9,0,4.7.5,5.5-4.3.6-3.6,1.4-7.2,2.8-10.5,5.6-14.4,20.8-24.4,36.2-23.8,7.2.3,16,1.1,22.7,3.9,7,2.9,10,8,14.2,13.9,4.6,6.5,8,16,5.4,23.9-.7,2.2-1.4,4.4-2,6.5Z"></path>
  <path class="cls-30" d="m1070.4,232c-.5-.9-1.5-1.6-2.6-1.7-3.4-.2-5.2,5.1-2.8,7.2,1.1,1,3,1.2,4.2.2.5-.4.9-.9,1.1-1.4.6-1.2.8-2.5.3-3.8,0-.2-.2-.4-.3-.6Z"></path>
  <path class="cls-33" d="m1087.4,258.8c0-1-.8-1.9-1.8-1.9-1,0-2,0-2.9,0-1,0-1.9.8-1.9,1.8,0,1,.8,1.9,1.8,1.9,1,0,2,0,2.9,0,1,0,1.9-.8,1.9-1.8Z"></path>
  <path class="cls-13" d="m1078.9,208.6c-2.5.3-5.1.2-7.7.6-2.6.4-5.1,1.2-7.6,1.7-2.3.5-1.8,4.1.6,3.6,2.6-.5,5.1-1.3,7.6-1.7,2.5-.4,5.1-.3,7.7-.6,2.3-.3,1.8-3.9-.6-3.6Z"></path>
  <path class="cls-13" d="m1102.5,227.9c-.3-.6-.2-1.3.3-1.9.6-.7,1.7-.8,2.5-.2.2.1,4.4,3.7,6.5,9,.4.9,0,1.9-1,2.3-.9.4-2,0-2.3-1-1.9-4.5-5.5-7.6-5.5-7.6-.2-.2-.4-.4-.5-.6Z"></path>
  <path class="cls-30" d="m1065.3,317c-34.5-8.2-30.8-48.9-30.8-48.9l17.1,10.4,7.9,9.9c3.7,8.1,5.4,18.1,5.8,28.6Z"></path>
  <path class="cls-26" d="m1098.7,268.6c-2.7-2.2-8-4.8-17-5.3-9.4-.6-16.9,4-26.4-5.9-4.1-4.3-6-10.5-7.1-16.2-.6-2.9-.8-5.8-1.1-8.7-.3-3.4-1.4-5.9.6-9.1,1.2-2,2.9-3.6,4.4-5.4,2.3-2.7,4-5.9,5.1-9.3,1-3.2-.2-7.4-2-10.1-1-1.4-2.3-2.7-2.8-4.3-1-2.7.4-5.8,2.6-7.7,2.2-1.9,5-2.7,7.9-3.3,3.7-.8,7.8-.9,11.2.8,2.6,1.3,4.3,3.3,6.5,5.1,2.5,2.1,4.8,4.4,7.2,6.7,2.9,2.7,6.2,5.2,9.9,6.4,3.9,1.2,7.7-.3,11.6-.7.8,0,1.5,0,2.2.2,1.3.5,2.8,2.7,2.9,4.1,0-1.1,0-9-5.7-17-3.2-4.6-8-8-12.9-10.7-8.2-4.7-16.5-7.5-26-6.9-7.9.5-17.3,1.9-28.6,8.7-12.1,7.3-13.9,32.2-13.5,35.5,0,0,5.1.7,6.9,2.1,5.2,4,3.7,12.7,2.2,18.3-.6,2.1-1.1,4.2-1.7,6.2-2.4,8.9-3.1,18.2-1.5,27.3,3.3,19.9,14.9,33.4,32.1,36.1,30.4,4.7,34.2-24.8,34.7-32.8,0-1.5-.5-2.8-1.6-3.8Z"></path>
  <path class="cls-30" d="m1102.3,243c0,.2,0,.5.2.7.2.9.6,1.9,1.3,2.6,1.9,1.6,4.4-.5,4.8-2.5.4-2-1.6-5.2-4-4.5-.5.2-1,.6-1.3,1-.5.6-.9,1.2-1,1.9,0,.3,0,.5,0,.8Z"></path>
  <path class="cls-2" d="m1087.1,272.1c-2.5-.9-17.9-3-20.3-2.7.7,9.4,14.3,19.9,20.3,2.7Z"></path>
  <path class="cls-43" d="m1532.1,1130.5c0,4.5,234.7,4.9-589.2,4.9s-433.2-.7-436.8-4.7c-3.2-3.5,25.9-5.9,108.9-5.8h.4c85.4-.3,195.5-.4,329.3-.4h17c44.8,0-81.5,0-31.5,0,109.9,0,105.2,0,212,0h-169.5c283.7,0,332.3.2,428.2.8h0c119,.8,131.2,2.3,131.2,5.2Z"></path>
  <path class="cls-30" d="m790.7,1132.2c-16.2,0-31.4-.2-42.9-.7-21.9-.8-23-2-24.8-3.7-2.7-2.7-3.2-3.2,4-70.1,3.7-34,9.1-81.2,16-140.2,11.8-100.5,24.3-201.8,24.4-202.8l11.7,1.4c-18.2,148.4-44.5,369.7-46.2,402.7,19.4,2.1,102.9,2,117.9-.3,10.5-24.3,89.6-254.7,142-408.7l11.2,3.8c-.3,1-35.1,103.3-70,204.6-20.5,59.5-37,107.1-49.1,141.4-23.4,66.3-24.4,67.1-26.5,68.6-1.7,1.2-5.1,3.8-67.9,3.8Zm-61-13.9"></path>
  <path class="cls-30" d="m1447.6,1132.2c-62.8,0-66.2-2.6-67.9-3.8-1.7-1.3-2.8-2.1-34.3-68-16.4-34.3-39-81.9-67-141.4-47.8-101.4-95.5-203.6-96-204.6l10.7-5c72.5,155.1,181.7,387.1,194,409.3,14.1,2.2,97,2.4,117.6.4-6.2-35-60.5-254.6-97.5-402.1l11.5-2.9c.3,1,25.7,102.3,50.4,202.8,14.5,59,25.9,106.2,33.9,140.2,15.8,67.3,15.3,67.7,12.3,70.8-1.7,1.7-2.9,2.9-24.8,3.7-11.5.4-26.7.7-42.9.7Zm57.6-9.1h0Zm3.4-4.8h0Z"></path>
  <path class="cls-30" d="m1241.7,1132.2c-62.8,0-66.2-2.6-67.9-3.8-2-1.5-3.1-2.3-26.5-68.6-12.1-34.3-28.6-81.9-49.1-141.4-34.9-101.4-69.6-203.6-70-204.6l11.2-3.8c52.4,154,131.5,384.5,142,408.7,15,2.2,98.5,2.3,117.9.3-1.7-33-28-254.3-46.2-402.7l11.7-1.4c.1,1,12.6,102.3,24.4,202.8,7,59,12.4,106.2,16,140.2,7.2,66.9,6.7,67.4,4,70.1-1.7,1.7-2.9,2.9-24.8,3.7-11.5.4-26.7.7-42.9.7Zm61-13.9h0Z"></path>
  <path class="cls-30" d="m584.8,1132.2c-16.2,0-31.4-.2-42.9-.7-21.9-.8-23-2-24.8-3.7-3.1-3.1-3.6-3.5,12.3-70.8,8-34,19.4-81.2,33.9-140.2,24.7-100.5,50.2-201.8,50.4-202.8l11.5,2.9c-37.1,147.4-91.3,367.1-97.5,402.1,20.6,2,103.5,1.9,117.6-.4,12.3-22.1,121.5-254.1,194-409.3l10.7,5c-.5,1-48.3,103.3-96,204.6-28.1,59.5-50.6,107.1-67,141.4-31.6,65.9-32.6,66.7-34.3,68-1.7,1.2-5.1,3.8-67.9,3.8Zm-61-13.9"></path>
  <path class="cls-30" d="m548.5,701.2s-5.9,18.9,0,21.3c5.9,2.4,906.7,0,907.8-4.7,1.2-4.7-3.5-21.3-3.5-21.3l-904.3,4.7Z"></path>
  <polygon class="cls-53" points="1494.3 711.8 516.6 711.8 519 684.6 1496.6 684.6 1494.3 711.8"></polygon>
  <path class="cls-41" d="m1456.3,711.8h38l2.4-27.2h-294.5l.4,27.2h34l-.2,8.9s219.7-1.4,220.1-3c.3-1.3.2-3.5-.1-5.9Z"></path>
  <path class="cls-20" d="m951.2,683.9c3.3,0,36.5-81.6,34.1-84-2.4-2.4-114.8-1.2-119.5,3.5-4.7,4.7-30.8,78.1-33.1,76.9,0,0-59.2,0-62.7,2.4-3.5,2.4-1.9,1.9-1.9,1.9,0,0,179.8-.7,183.2-.7Z"></path>
  <path class="cls-44" d="m836.2,679.9h111.2s33.1-75.7,30.8-78.1c-2.4-2.4-110,2.4-111.2,3.5-1.2,1.2-30.8,74.5-30.8,74.5Z"></path>
  <path class="cls-15" d="m985.3,599.9c-.2-.2-1.2-.4-2.8-.5-3.6,9.6-29.3,78.3-31.5,80.5h-85s-8.7-.7-9.2,4.4h-18.9c54.7-.2,111.6-.4,113.3-.4,3.3,0,36.5-81.6,34.1-84Z"></path>
  <path class="cls-1" d="m968.1,601.1c-1.9,0-4,0-6.3,0-.7.5-34.5,24.3-38,25.5-3,1,23.4-19.1,31.7-25.4-3.7,0-7.7.2-11.9.3,0,0-74.2,51.1-74.2,54.7s21.3-3.5,20.1,1.2c-1,4-19.1,18.3-24.5,22.5h23.3c9.8-6.5,36.2-24.8,34.3-29.6-2.4-5.9-10.6-5.9-9.5-8.3,1.2-2.4,54.7-40.6,55-40.9Z"></path>
  <path class="cls-5" d="m1210,684.6c3.9,0,31-97.1,28.3-99.9-2.8-2.8-135.3-1.4-140.9,4.2-5.6,5.6-24.4,92.1-27.2,90.7,0,0-43.7,0-47.9,2.8-4.2,2.8-2.3,2.2-2.3,2.2h190Z"></path>
  <path class="cls-13" d="m1022.3,682.4c4.2-2.8,47.9-2.8,47.9-2.8,2.8,1.4,21.6-85.1,27.2-90.7,5.6-5.6,138.1-7,140.9-4.2.2.2.2,1,0,2.2-38.8-1.4-132.2,0-137.8,4.2-7.1,5.4-21.5,88.6-26.4,93.1-43.2.2-54,.3-54,.3,0,0-1.9.6,2.3-2.2Z"></path>
  <path class="cls-11" d="m1272.1,627.8s19.5-4.2,25.2,5.8c5.6,10-9.3,25.5-15.8,32-6.4,6.5-19.7,14.8-19.7,14.8l2-16.6s3.5,6.1,5.7,4.7c2.2-1.4,15.2-13.2,17.7-23.9,2.5-10.8-3.5-12.6-15-10.3-11.5,2.3,0-6.4,0-6.4Z"></path>
  <path class="cls-11" d="m1222.1,685.8c-2.9-6.7-10.4-65.4-7.5-70.2,3-5,61.8-4.1,62.6,4.7,0,0-11.9,60.2-14.7,65.5h-40.5Z"></path>
  <path class="cls-2" d="m1219.7,624c0-4,6.2-4.7,6.3-.6.1,6.7-2.2,14.5-1.6,21.2.4,4.2-3.3,3.7-3.7-.5-.7-6.7-1-13.4-1-20.1Z"></path>
  <path class="cls-7" d="m965,625.4s-19.5-4.2-25.2,5.8c-5.6,10,9.3,25.5,15.8,32,6.4,6.5,19.7,14.8,19.7,14.8l-2-16.6s-3.5,6.1-5.7,4.7c-2.2-1.4-15.2-13.2-17.7-23.9-2.5-10.8,3.5-12.6,15-10.3,11.5,2.3,0-6.4,0-6.4Z"></path>
  <path class="cls-7" d="m1015,683.4c2.9-6.7,10.4-65.4,7.5-70.2-3-5-61.8-4.1-62.6,4.7,0,0,11.9,60.2,14.7,65.5h40.5Z"></path>
  <path class="cls-2" d="m1017.4,621.6c0-4-6.2-4.7-6.3-.6-.1,6.7,2.2,14.5,1.6,21.2-.4,4.2,3.3,3.7,3.7-.5.7-6.7,1-13.4,1-20.1Z"></path>
  <path class="cls-43" d="m778.6,1139.7c-.2,3.6-9.4,4-62.8,4s-63.5.5-63.8-4c-.3-3.5,12.9-4,63.3-4s63.7-2.1,63.3,4Z"></path>
  <path class="cls-49" d="m794,631.3c1.2-5.9-3.5-10.6-5.9-14.2-2.2-3.4-1.6-8.4-2.1-12.2-.7-5.8-.4-11.8-2.5-17.4-2.5-6.8-6.8-12.6-9.4-19.4-2.6-6.8-4.7-13.8-6.2-20.8-4.7-21.3-11.8-36.7-14.2-46.1-2.4-9.5-9.5-53.2-14.2-65.1-4.7-11.8-11.8-8.3-11.8-8.3l-33.6,39s12.3,74.6,18.2,93.5c5.9,18.9,18.9,43.8,29.6,59.2,10.6,15.4,27.2,26,27.2,26l23.7,41.4,31.8-11.3-30.6-44.3Z"></path>
  <path class="cls-32" d="m815.5,671s10.4-5.4,17.2-4.9c3.9.3,22.1,7.4,30.7,9.8,8.6,2.5,14.7,3.7,17.2,4.9,2.5,1.2,0,3.7-2.5,4.9-2.5,1.2-69.9,0-69.9,0l7.4-14.7Z"></path>
  <path class="cls-10" d="m852.3,684.1c-1.3-1.3-2.5-2.6-3.8-3.8-4.6-4.1-11-5.7-17-3.8-1.9.6-5,1.9-5.2,4.2-.1,1.7,1.6,3.8,3.1,5.4,7.9,0,16.8.2,24.9.2-.5-.9-1.5-1.6-2.1-2.2Z"></path>
  <path class="cls-32" d="m816.3,685.9s6.7,2.8,11.4,6.4c4.7,3.5,8.3,3.5,9.5,0,1.2-3.5-7.1-10.6-7.1-11.8s14.6,2.3,21.9,4.1c9.5,2.4,16.6,4.7,18.3,3,3-3,2.4-4.7-1.2-5.9-3.5-1.2-29.6-10.6-29.6-10.6l-18.9,5.9-4.3,9Z"></path>
  <path class="cls-10" d="m863.6,677.3c-6.9-2.3-14-3.9-20.8-6.5-1.2-.4-1.6,1.4-.5,1.8,4.7,2,9.6,3.4,14.5,4.9,2.8.8,15.8,3.6,15,7.5-.3,1.4,1.9,2.1,2.2.6,1.3-5.5-6.7-7.2-10.4-8.4Z"></path>
  <path class="cls-35" d="m603.5,558s-13-4.7-13-13,13-23.7,13-23.7c0,0-5.9-9.5-3.5-15.4,2.4-5.9,13-15.4,10.6-40.2-2.4-24.8-10.6-45,3.5-59.2,14.2-14.2,28.4-11.8,35.5-13,7.1-1.2,81.6,39,81.6,39l3.6,3s3.5,18.3-2.5,44.3c-5.9,26-4.7,54.4-2.4,67.4,2.4,13-5.9,22.5-5.9,22.5h-100.6l-20.1-11.8Z"></path>
  <path class="cls-48" d="m721.8,1133s52.1,0,43.8-4.7c-8.3-4.7-42.6-8.3-42.6-8.3l-1.2,13Z"></path>
  <path class="cls-7" d="m668.6,1134.2s1.2,4.7,13,7.1,59.2,5.9,61.5,2.4c2.4-3.5-16.6-24.8-16.6-24.8l-58,15.4Z"></path>
  <path class="cls-23" d="m772.7,959.1s-1.2,21.3,3.5,28.4c4.7,7.1,25.4,32.5,24.3,37.3-1.2,4.7-29.6,4.7-60.3-18.9-30.8-23.7-16-77.5-16-77.5l48.5,30.8Z"></path>
  <path class="cls-7" d="m740.1,1005.8c30.8,23.7,59.2,23.7,60.3,18.9,1-4-13.4-22.5-20.9-32.6-7.4,2.5-15.2,12.5-19.3,12.5s-28.1-15.9-35.6-21c2.9,8.4,7.8,16.2,15.5,22.1Z"></path>
  <path class="cls-3" d="m822.4,842c3.5-48.5,7.1-130.2,5.9-150.3-1.2-20.1-9.5-21.3-24.8-28.4-15.4-7.1-74.5-33.1-75.7-34.3s2.4-3.5,1.2-8.3c-1.2-4.7-9.5-4.7-9.5-4.7-1-1-1.4-6.2-1.4-12.1.9-11.1,2.8-25.9,6.2-34.1,0,0-39.2-27-79.3-34.3-4.7,4.2-8.4,5-15.1,4.7-6-.3-10-.3-15.4,2.7-2.3,1.2-4.5,2.5-6.8,3.7-3,6.6-8.9,16.3-20.6,29.2-24.8,27.2-40.2,60.3-17.7,118.3,22.5,58,24.8,68.6,41.4,138.4,16.6,69.8,23.7,111.2,29.6,157.4,5.9,46.1,2.4,138.4,14.2,145.5,11.8,7.1,20.1-5.9,71-7.1,29.7-.7,38.8.2,41.3,1.1-1.1-10.7-8.9-88.5-17.4-164.8,24.6,1.5,78.1,4.3,79,1.6,1.2-3.5-9.5-75.7-5.9-124.2Zm-92.3-27.2c-4.8-22.1-16.5-55.7-27.3-85.1,19.6,25,42.5,51,43.2,52.6,1.2,2.4-7.1,17.7-9.5,28.4-.7,3.3-1,19.3-.9,39.7-2.2-16.2-4.1-28.7-5.6-35.6Z"></path>
  <path class="cls-17" d="m828,729.7c0-1.5,0-3,.1-4.4l-15.6-19.5,15.8-12.9c0-.4,0-.8,0-1.2,0-.8-.1-1.6-.2-2.3l-17.3,14.2-30.4-38.1,9.9-8.1c-.9-.4-1.9-.9-2.9-1.3l-8.8,7.2-13.7-17.2c-1.9-.8-3.8-1.7-5.6-2.5l17.2,21.5-37.7,30.9-30.4-38.1,29.4-24.1c-1-.5-2-.9-2.9-1.3l-28.3,23.1-30.4-38.1,37.7-30.9,5.3,6.6c.2-1.3.3-2.6.5-3.9l-3.6-4.5,5.1-4.2c.3-1.6.7-3.1,1-4.5l-7.9,6.5-25.8-32.4c-1.4-.7-2.8-1.4-4.3-2.1-.5-.2-1.1-.5-1.6-.7l29.5,37-37.7,30.9-30.4-38.1,37.1-30.4c-1-.4-2-.8-2.9-1.3l-36,29.4-26.1-32.7c-.5.2-1,.5-1.6.8-.3.2-.6.4-1,.5l26.5,33.2-37.7,30.9-20.5-25.7c-.6.7-1.2,1.5-1.8,2.3l20.2,25.3-37.7,30.9-3.7-4.6c-.1,1.4-.2,2.8-.2,4.3l1.7,2.1-1.7,1.4c0,1.2,0,2.4,0,3.6l3.4-2.8,30.4,38.1-20.9,17.1c.4.9.7,1.9,1.1,2.8l21.6-17.7,30.4,38.1-34.6,28.4c.3,1,.6,2,.9,2.9l35.5-29.1,30.4,38.1-37.7,30.9-26-32.6c.7,2.3,1.3,4.6,2,7l21.8,27.4-12.4,10.1c.2,1,.5,2,.7,3.1l13.4-11,30.4,38.1-31.5,25.8c.2,1,.5,2.1.7,3.1l32.5-26.6,30.4,38.1-37.7,30.9-22-27.5c.4,2.1.9,4.2,1.3,6.2l18.5,23.1-11.9,9.8c.2,1.1.4,2.1.6,3.2l13.1-10.7,30.4,38.1-34.7,28.4c.1,1.1.3,2.2.4,3.3l36-29.5,30.4,38.1-37.7,30.9-28.1-35.3c.2,1.4.4,2.9.6,4.3,0,.4,0,.7.1,1.1l25.3,31.6-21.9,18c0,1.2,0,2.4.1,3.6l23.6-19.3,30.4,38.1-37.7,30.9-15.1-18.9c0,1.6.1,3.2.2,4.8l12.6,15.8-11.1,9.1c.1,1.2.2,2.3.3,3.4l12.5-10.3,27.5,34.5c1-.2,2.1-.4,3.1-.6l-28.4-35.6,37.7-30.9,30.4,38.1-33.4,27.4c1.8-.3,3.6-.5,5.4-.7l29.8-24.4,18,22.6c1.3,0,2.6,0,3.7,0l-19.5-24.5,27.8-22.7c-.1-1.1-.2-2.2-.4-3.4l-29.2,23.9-30.4-38.1,37.7-30.9,19.8,24.8c-.2-1.7-.4-3.5-.5-5.2l-17-21.3,13.6-11.1c-.1-1.1-.2-2.2-.4-3.4l-15,12.3-30.4-38.1,37.7-30.9,4.2,5.3c1.2,0,2.5,0,3.7.1l-5.7-7.2,37.7-30.9,30.4,38.1-3,2.5c1.6,0,3.1,0,4.5,0l.3-.2.2.2c1.3,0,2.5,0,3.5-.1l-1.5-1.9,6.5-5.4c0-1-.2-2.2-.3-3.4l-8,6.6-30.4-38.1,33.4-27.3c0-1.2-.1-2.3-.2-3.5l-35,28.6-30.4-38.1,37.7-30.9,27.3,34.3c0-1.6-.1-3.2-.2-4.8l-24.9-31.3,26.1-21.4c0-1.3.2-2.6.3-3.9l-28.1,23-30.4-38.1,37.7-30.9,21.9,27.5c0-1.4.2-2.8.2-4.2l-20-25,22.1-18.1c0-1.3.1-2.5.2-3.8l-24,19.7-30.4-38.1,37.7-30.9,17.7,22.1Zm-91.6-32l-37.7,30.9-30.4-38.1,37.7-30.9,30.4,38.1Zm-32.2-40.3l-37.7,30.9-30.4-38.1,37.7-30.9,30.4,38.1Zm-62.6-78.5l30.4,38.1-37.7,30.9-30.4-38.1,37.7-30.9Zm-77.7,63.6l37.7-30.9,30.4,38.1-37.7,30.9-30.4-38.1Zm32.2,40.3l37.7-30.9,30.4,38.1-37.7,30.9-30.4-38.1Zm32.2,40.3l37.7-30.9,30.4,38.1-37.7,30.9-30.4-38.1Zm-7.7,73.1l37.7-30.9,30.4,38.1-37.7,30.9-30.4-38.1Zm32.2,40.3l37.7-30.9,30.4,38.1-37.7,30.9-30.4-38.1Zm69.9,9.4l30.4,38.1-37.7,30.9-30.4-38.1,37.7-30.9Zm-77.7,63.6l37.7-30.9,30.4,38.1-37.7,30.9-30.4-38.1Zm92.6,120.6l-37.7,30.9-30.4-38.1,37.7-30.9,30.4,38.1Zm-30-42.1l-30.4-38.1,37.7-30.9,30.4,38.1-37.7,30.9Zm77.7-63.6l-37.7,30.9-30.4-38.1,37.7-30.9,30.4,38.1Zm7.7-73l-37.7,30.9-30.4-38.1,37.7-30.9,30.4,38.1Zm7.7-73l-37.7,30.9-17.6-22.1c-.4,1-.8,2-1.2,3.1l16.6,20.8-37.7,30.9-30.4-38.1,31.3-25.6c-.3-1-.6-2-.9-2.9l-32.1,26.3-30.4-38.1,37.7-30.9,17.9,22.4c-1.1-2.9-2.2-5.9-3.4-8.8l-12.3-15.4,37.7-30.9,30.4,38.1-35.3,28.9c.6.7,1.2,1.5,1.8,2.2l35.2-28.8,30.4,38.1Zm-30-42.1l-30.4-38.1,37.7-30.9,30.4,38.1-37.7,30.9Z"></path>
  <path class="cls-37" d="m739.4,855.4c0,0,0-.2,0-.3.7-5.6-.8-11.4-1.7-16.9-1-6.1-2.2-12.2-3.4-18.2-2.5-12.1-5.4-24.2-8.7-36.1-6-21.2-13.9-41.3-22.7-61.4-5-12.8-10.1-25.5-14.4-38.6-2.3-7-5.4-14.7-5.5-22.2-.1-8.5,3.6-15.9,6.7-23.6,3.6-1.4,7.2-2.8,10.5-4.8,1.8-1.1.6-4.4-1.5-3.6-3.6,1.5-7.2,3.3-10.8,4.7-.4.2-.8.5-1,.8-.4.2-.7.4-1,.9-3.4,6.6-6.4,13.9-7.2,21.3-.8,8.1,1.7,15.8,4.2,23.4,5,15.6,10.7,31.6,18.2,46.3,7.8,19.7,14.1,40.1,19.7,60.4,3.1,11.2,5.9,22.5,8.3,33.9,1.3,6.1,2.4,12.1,3.5,18.2.8,4.7,1.3,9.6,2.7,14.2,3.9,36.6,8.2,73.2,12.2,109.8.3,2.9,4.8,2.9,4.6,0-3.3-36.1-7.3-72.3-12.5-108.2Z"></path>
  <path class="cls-37" d="m715.1,570.1c-5.4,14.4-10.4,29.3-14.5,44.2-.4,1.4,1.7,1.9,2.1.6,4.8-14.8,9.4-29.5,14.3-44.3.4-1.2-1.5-1.7-1.9-.5Z"></path>
  <path class="cls-37" d="m703.1,602.8c-1.4-2.9-3-5.8-4.5-8.7-1.6-3.1-3.8-6.2-3-9.8.4-1.9,1-3.9,1.7-5.7,1.5-4.2,3.4-8.1,5-12.3.4-1.1-1.5-1.9-1.9-.8-1.1,2.5-2.1,5-3.2,7.6-23.7-12.8-50.3-22.6-77.1-26-.9-.1-1.1,1.4-.2,1.6,13.4,2.8,26.6,5.9,39.5,10.4,12.7,4.4,25.1,9.9,36.9,16.3,0,0,0,0,0,0-1.2,3.2-2.9,6.7-3.2,10.1-.3,2.9,1.2,5.3,2.5,7.8,1.8,3.6,3.6,7.2,5.5,10.7.7,1.3,2.6.2,2-1.1Z"></path>
  <path class="cls-37" d="m640.3,574.4c-8.9,15.7-22.2,26.4-36.4,37.1-2.1,1.5,0,5.1,2.1,3.5,14.5-10.5,30.2-21.8,38.2-38.4,1.2-2.5-2.4-4.8-3.8-2.2Z"></path>
  <path class="cls-38" d="m672.9,972.9c-2.4-14.9-4.5-29.8-6.5-44.7-4.1-29.7-8.1-59.5-13.9-89-5.8-29.1-13.5-57.9-24.9-85.4-5.8-13.9-12.7-27.1-19.7-40.4-7.4-14.2-14.6-28.6-18.6-44.1-4.4-17.1-4.2-34.6,2.4-51.1,6.2-15.4,16.4-28.8,26.4-42,.6-.8-.8-1.9-1.4-1.1-8.9,11.5-17.9,23.2-24.2,36.3-6.4,13.2-9.3,27.4-8,42.1,2.8,31.8,21.5,58.7,34.8,86.8,26.1,55.1,35,116.1,43.3,175.9,2.3,17,4.6,34,7.2,51,2.6,16.8,19,132.2,23.7,148.6.3.9,1.6.5,1.4-.4-2.2-14.8-19.6-127.7-22-142.6Z"></path>
  <path class="cls-40" d="m680.9,367.2c-8.8,2.9-19.2,2-26.3-3.9-6.1,2.8-13.4,3.3-19.5.6-6.1-2.7-10.7-9.1-10.4-15.8-5.5-1.6-9.3-7.2-9.8-12.9-.5-5.7,1.9-11.4,5.5-15.9-.3.3-4.6-7.9-4.9-8.9-1.3-4.2-2.2-8.5-2.7-12.8-.2-1.9-.4-3.8,0-5.7.3-1.5,1-3,1.8-4.3,5.3-8.9,16-14.3,26.3-13.1.2-4.8,1.5-9.8,4.6-13.5,3.1-3.8,8-6.2,12.8-5.4,1.6.3,2.9,1.4,4.4,1.8,2.4.6,2.4-.2,3.2-2.3,1.5-3.7,3.8-7.2,7-9.7,3.9-2.9,9.3-4.2,13.9-2.4,6.5,2.5,9.7,9.9,11.2,16.7,4.7-2.1,10.5-2.3,15,.3,5.1,2.9,7.1,8.4,6.3,14,2.6.6,4.9,2.5,6,5,1.1,2.5,1,5.4-.2,7.8,2.5,2,3.8,5.2,4.2,8.3,1,6.9-1.2,14-4.9,20-3.8,6.1-10.8,10.8-13,17.7-2.2,7.3-6,15.5-11.2,21.2-5.3,5.7-11.7,10.7-19.1,13.3-.1,0-.3,0-.4.1Z"></path>
  <path class="cls-35" d="m664.5,359.2s-14.2-1.2-18.9,4.7c-4.7,5.9,0,11.8,0,15.4s-5.9,10.6-4.7,15.4c1.2,4.7,54.4,61.5,72.2,55.6,17.7-5.9,30.8-24.8,29.6-33.1-1.2-8.3-7.1-8.3-7.1-14.2s-11.8-20.1-35.5-31.9c-23.7-11.8-35.5-11.8-35.5-11.8Z"></path>
  <path class="cls-40" d="m665,384.5s-8.7-7.5-7.5-11.1c1.2-3.5,21.3,4.7,21.3,4.7l-13.8,6.3Z"></path>
  <path class="cls-40" d="m716.1,405s18.3-4.4-15.3-20.3c-13.7-6.5-16.5,10.2-16.5,10.2l31.8,10.1Z"></path>
  <path class="cls-22" d="m702.2,374.8h0s0,.3,0,.3c.2,1.2.4,3.9.6,5.9,0,.9.1,1.7.2,1.9.5,3.6,1,7.8,2.8,10.9,1.1,1.9,7.8,8.6,10.5,11.3,0,0-37.6-.9-54.8-24.2,0,0,4.4-17.4-2-34.8,0,0-13.5,5.4-17.9-8.4-1.1-3.6-1.3-10.5,4.2-14,2.9-1.8,9.1-1.8,11.9,2,.9,1.2,1.7,2.6,2.4,4,.6,1.2.3-1.4.8-2.6.7-1.8-.6-7.7,3.3-13.5,1.3-2,3.3-3.4,5.1-4.9,2.4-2.1,9.6-12.1,12-13.7,2.3-1.4,14.3-3.6,17-8,1.7-2.8,13.7,7.7,15.1,9.8,12.9,20.3,27.2,49.3,14.7,69.8-9.9,12.3-26.2,8.3-25.9,8.3Z"></path>
  <path class="cls-9" d="m716.9,332.1c-.3-1-1.4-1.6-2.4-1.3-1,.3-2,.6-3,.9-1,.3-1.6,1.4-1.3,2.4.3,1,1.4,1.6,2.4,1.3,1-.3,2-.6,3-.9,1-.3,1.6-1.4,1.3-2.4Z"></path>
  <path class="cls-40" d="m688.2,302.7c-2.5,1.1-1.9.7-4.3,2-2.5,1.3-4.8,2.8-7.2,4.2-2.2,1.2-.4,4.7,1.7,3.5,2.4-1.4,4.7-2.9,7.2-4.2,2.4-1.2,1.9-.9,4.3-2,2.3-1,.5-4.5-1.7-3.5Z"></path>
  <path class="cls-40" d="m711,307.1c-.5-.3-.9-.8-1-1.5,0-1,.7-1.7,1.7-1.8,1.1,0,2.4,0,3.5.2,1.4.3,2.8.9,4.1,1.3.6.2,1.2.4,1.7.7.5.3.9.8,1.1,1.4.6,2.5-2.9,1-4.1.7-2-.5-4-.9-6.1-.9-.3,0-.6,0-.9-.2Z"></path>
  <path class="cls-30" d="m684.9,323.9c-1.4.7-3.4-.4-3.2-2,.2-1.8,2.9-3.6,4.5-4.1,2.5-.8,5.2-.7,6.4,0,2.1,1.2,2.2,3.8.9,3.7-5.7-.4-7.5,1.8-8.5,2.4Z"></path>
  <path class="cls-30" d="m725.4,321.1c1.1-2.2-2-4.1-3.5-4.7-1.7-.7-3.4-1-5.1-.5-.4.1-.9.3-1.1.7-.5.9-.4,1.8.2,2.6,1.2,1.7,2.8.4,4.4.6,3.1.3,4.6,2.3,5.1,1.2Z"></path>
  <path class="cls-9" d="m677.1,364.7c5.6,9.3,13.3,14.4,25.7,16.2-.2-1.9-.4-4.7-.6-5.9v-.3c0,0,0,0,0,0,0,0,0,0-.1,0-9.4-1.6-19-6.5-25-10Z"></path>
  <path class="cls-2" d="m721.2,343.4c-2.9-.7-20.1-1.2-22.8-.6,1.9,10.3,18.1,20.4,22.8.6Z"></path>
  <path class="cls-39" d="m662.2,397.1c-5.8-4-9.3-10.3-12.9-16.3-1.4-2.3-5-.2-3.6,2.1,3.9,6.7,9.2,12.3,15.5,16.8,2.3,1.6,3.3-.9,1-2.6Z"></path>
  <path class="cls-37" d="m738.9,427.6c-.3.2-.5.5-.8.7-4.6,5.3-9.6,10.2-15.2,14.2-10.8,7.8-20.8,3.4-30.5-3.7-9.2-6.8-17.8-14.8-26.5-22.3-2-1.7-4.1-3.3-6.1-4.9-2.8-2.2-5.6-4.4-8.2-6.9-1.3-1.2-2.5-2.4-3.7-3.8-1-1.2-1.9-2.2-3.4-2.8-.2,0-.9-.4-1.2-.2-.2.1-.1.6-.1.8,0,.7.4,1.4.7,2,.6,1.3,1.6,2.4,2.5,3.5,1.6,2,3.4,3.9,5.3,5.6,6,5.2,12,10.4,18,15.6,10,8.7,20.3,19.8,33,24.6,11.5,4.4,21.3-1.7,29.5-9.5,3.1-2.9,5.6-5.7,7.4-9.5.6-1.3,1.1-2.7.6-4-.5,0-.9.1-1.3.4Z"></path>
  <path class="cls-38" d="m759.2,821.8c.2-11.1.9-22.1,1.2-33.2.2-10.7-.8-20.9-2.3-31.4-.8-5.4-1.2-10.7-.8-16.1.3-5.2,1.2-10.4.8-15.6-.6-9.2-5.5-16.2-11.8-22.5-16.5-16.6-35-31.5-53.8-45.4-1-.7-2,.9-1,1.7,16.7,12.6,32.8,26,48,40.3,7.1,6.7,14.8,13.8,16.1,24,.6,5.1,0,10.3-.5,15.4-.4,4.9-.4,9.8.2,14.7,1.2,10.6,2.9,20.8,2.8,31.5,0,10.9-.9,21.7-1.2,32.6-.5,21.7.2,43.4,1.5,65.1,1.5,24.4,3.7,48.8,6,73.2.1,1.5,2.5,1.5,2.3,0-4.2-44.6-8.3-89.3-7.6-134.2Z"></path>
  <path class="cls-37" d="m728.9,627.8c-2.3-1.5-5.2-3.1-7.8-3.7-2.1-.5-3,2.7-.9,3.3,2.6.7,4.8,1.9,7.3,2.8,1.9.7,3-1.4,1.4-2.4Z"></path>
  <path class="cls-37" d="m749,769.8c-1.6,3.7-3.8,7.1-5.6,10.7-1.8,3.6-2.8,7.7-3.3,11.7,0,.5,0,1,0,1.4.1.5.5.9,1,1,1.6.3,2.7-3.2,3.2-4.3,1-2.2,1.9-4.4,2.9-6.7,1.9-4.5,3.7-9,5.5-13.4,1.2-2.8-2.5-3.2-3.7-.4Z"></path>
  <path class="cls-39" d="m669.9,541.4c-18-6.8-36.4-12.1-55.3-15.5-2.4-.4-3.2,3.3-.8,3.8,18.5,3.8,36.5,7.1,54.2,13.7,2.5,1,4.5-1,1.9-1.9Z"></path>
  <path class="cls-39" d="m609.5,543.2c-1.9.7-3.9,1.5-5.7,2.5-1.7.9-3.7,1.9-4.8,3.6-.7,1,.5,2.5,1.6,2.1,1.7-.6,3.2-2,4.7-3,1.7-1.1,3.3-2,5.1-2.9,1.3-.6.4-2.9-1-2.3Z"></path>
  <path class="cls-21" d="m826.9,394.6c-2.8-2.8-6.9-3.6-10.6-4.8-4-1.3-10.7-1.2-13.7-4.3-4.1-4.1-2.2-10.1-3-15.2-.6-4.2-3.6-8-7.5-9.6-7.7-3.2-5.6,5.6-5.5,10.2,0,4.4.2,9.1-1.1,13.3-1.8,5.7-2.8,5.2-7.8,12.3-1.1,1.6-4.3,8.3-5.5,10.1-4.6,7.6-26.7,50.9-26.7,50.9-3.9,11,12.8,33.3,17.7,37.9-.9,1.2-.4.7.9-.8,2.1-4.5,4.2-9,6.2-13.5,3.7-10.6,8-21.1,12.5-31.4,1.2-2.7,2.5-5.7,4.5-8.1,0,0,0-.1,0-.2,0-.2.2-.3.3-.4.8-.8,1.6-1.6,2.6-2.2,2.8-1.8,6.2-1.8,9.6-1.9,4.7-.8,10-1.5,12.3-4,1.1-1.2,1.7-2.8,3-3.8.8-.6,1.8-1,2.6-1.4,1.8-1,3.2-2.9,3.7-4.9.6-2.3-.2-4.6,1.1-6.7,1-1.6,3-2.5,3.5-4.5.7-2.6-1.9-5.4-.8-7.8.7-1.5,2.6-2.3,3.2-3.8.6-1.7-.4-4-1.6-5.2Z"></path>
  <path class="cls-32" d="m783.7,398.8c0-1,0-2,1-2.8.4-.3,1-.4,1.3-.1.5.4.3,1.3.1,1.9-.7,2.3-.2,5,1.2,7,.7.9,1.5,1.7,1.8,2.8.2.9,0,1.9,0,2.9,0,2.8,1.8,5.2,4,6.9.4.3.9.6,1.1,1.1.2.4.3.9.4,1.4.3,1.9.2,3.9.7,5.8.2.8.5,2,1.2,2.6.8.7,1.6.7,2.1,1.8,0,.1,0,.3,0,.4,0,.3-.5.3-.8.3-3.5-.4-6.6-3.5-6.9-7,0-.7,0-1.5-.3-2.2-.4-1.2-1.5-2.1-2.4-3-1-1-1.8-2.2-2.3-3.5-.5-1.5-.6-3.1-.5-4.7,0-1.2.2-2.5-.2-3.7-.2-.6-.5-1.1-.8-1.7-.8-1.8-.5-3.4-.7-5.3,0-.3,0-.5,0-.8Z"></path>
  <path class="cls-32" d="m801.1,433.8c-3.8,0-7.2-.5-10.9-1.4-2.6-.6-4.2,3.2-1.7,4.4,3.9,1.8,7.9.2,12.1-.4,3-.4,3.8-2.7.6-2.6Z"></path>
  <path class="cls-35" d="m764.4,420.7s4.7,21.3,23.7,20.1c.8,0-29.6,69.8-29.6,69.8,0,0-5.9,27.2-41.4,36.7-35.5,9.5-61.5-31.9-81.6-60.3-20.1-28.4-29.6-59.2-23.7-71,5.9-11.8,26-23.7,37.9-11.8,10.7,10.7,27.8,42,31.4,45.6,3.5,3.5,13,13,13,20.1,0,0,16.6,7.1,20.1,18.9,0,0,15.4-27.2,23.7-24.8l26.6-43.2Z"></path>
  <path class="cls-39" d="m765.7,489c-6,2.8-11.5-1.9-15.4-6-3.7-3.8-8.7-11.5-9.4-16.9-.2-1.2-2.2-.9-2.1.3.9,6.7,7,15.4,11.6,19.9,4.4,4.3,10.4,7.5,16.5,4.7,1.3-.6.2-2.6-1.2-2Z"></path>
  <path class="cls-37" d="m734.4,463.4c-1.3.1-2.7.5-3,.6-3.2,1.3-6.1,2.8-8.7,5.1-4.3,3.7-7.6,8.4-9.6,13.7-1.9-2.5-4-4.8-6.3-6.9-1.5-1.4-3.2-2.8-4.8-4-3-2.3-4.6-4.3-6.4-7.7-4.5-8.1-12-13.7-16.8-21.6-5.3-8.9-9.1-18.4-15.4-26.7-5.6-7.3-12.1-13.4-19.7-18.5-1.4-.9-2.5,1.2-1.3,2.1,8.2,6.3,15.6,14,21.1,22.8,5.1,8.2,8.1,17.7,13.7,25.7,2.2,3.2,4.8,5.9,7.5,8.7,1.9,2,3.8,3.9,5.3,6.2,1.3,2,1.7,4.3,2.8,6.3,1.9,3.5,5,4.9,8.1,7.4,4.3,3.5,7.9,7.5,11,12-.4.3-.9.7-1.3,1-.1,0-.2,0-.3,0-10.5,5.5-18.3,15.2-24.7,24.9-.7,1.1,1,2.1,1.7,1,4.9-6.9,10-13.5,16.3-18.8-3.6,4.7-6.3,10-7.9,15.9-.7,2.7,3.4,3.8,4.1,1.1,2.2-8.4,6.7-18.1,13.2-24.1,1.2.5,2.6,0,2.9-1.4,1.3-5.5,4.1-10.6,8.2-14.5,1.9-1.8,3.9-3.4,6.1-4.9,1.1-.7,2.3-1.4,3.6-1.9.8-.4,3.1-1,3.4-1.9.7-1.6-1.1-1.7-2.9-1.5Z"></path>
  <path class="cls-37" d="m727.5,543.5c-3.7,3.6-9.1,5.3-14.3,5.5-10.3.4-20.1-4.9-28.2-10.7-8.3-5.9-15.7-13.1-22.6-20.6-8.9-9.7-16.9-20.8-24.5-31.5-7.4-10.4-14-21.3-19.2-33-.6-1.5-3.2-.4-2.6,1.1,5.1,13.8,12.7,26.3,21.2,38.2,8.5,11.9,17.2,24.4,28,34.3,6.4,5.9,13.2,11.6,20.6,16.3,9.1,5.7,20,10.5,30.9,8.8,2.6-.4,5.2-1.2,7.6-2.4,4-2,7.8-4.4,11.3-7.2,1.7-1.4,3.4-2.9,5-4.5.7-.7,1.4-1.4,2-2.2.6-.8,1-1.7,1.8-2.3-3.5,2.4-6.9,4.8-10.5,7-1.4.8-2.9,1.6-4.5,1.8-.3,0-.5,0-.8.2-.2,0-.3.2-.4.4-.3.3-.6.6-.9.9Z"></path>
  <path class="cls-39" d="m644.2,404.4c-8.8-5.8-20.4,1.3-26.2,8.3-7.1,8.6-9.3,20.7-5.2,31.1.4,1,2,.6,1.7-.5-3-9.7-2-20,4.3-28.2,5.4-7,15.6-13.6,24.4-8.9,1.2.7,2.2-1.1,1.1-1.8Z"></path>
  <path class="cls-16" d="m1339.3,798.6c-23.2,14.5-52.1,23-52.1,23l1.2,48.2,27.6-6.7,24.1-11.9c-.3-17.5-.7-35.1-.9-52.6Z"></path>
  <path class="cls-30" d="m1311.2,859.6s-9.7-3.4-9.8-7c0-3.6,5.9-6.2,4.6-9.8s-5.4-21.6-7.8-22.7c-2.4-1.1-10.9-.9-10.9-.9,0,0-44.3,13.2-57.5,16-13.2,2.8-33.6,6.9-28.3,27.3,5.3,20.4,30.8,25.8,64.5,22.5,33.7-3.3,68-30.7,68-30.7l-22.8,5.4Z"></path>
  <path class="cls-28" d="m1259.9,882.6c-30.1.8-46.1-10.9-51.3-24-5.1-13.1,9.3-20.5,9.4-20.6-10.7,3.4-20.4,9.6-16.5,24.4,5.3,20.4,30.8,25.8,64.5,22.5,23.7-2.3,47.6-16.5,59.8-24.8-.8.5-36.1,21.8-65.9,22.5Z"></path>
  <path class="cls-4" d="m1353.5,670.7c3.2,2.3,6.8,4.6,9.6,7.5,7.2,7.4,13.3,17,19.1,25.6,6,8.9,11.7,18,17,27.3,16.5,28.6,33.1,58.7,54.7,83.9,28.3,33.1,44.2-33.4,44.2-33.4,0,0-81.1-91-92.4-110.5-9.7-16.7-19-35.7-19.7-55.2,0-1.7,0-3.4-.6-4.9-.5-1.6-1.7-3.1-3.3-3.5-2.5-.7-5,1.2-6.5,3.3-2.8,3.9-4.1,8.8-4.4,13.6-.2,3.2-4-1.1-5.1-1.9-2.9-2.2-5.7-4.3-8.6-6.5-5.8-4.3-11.6-8.5-17.5-12.5-1.2-.8-2.4-1.6-3.8-1.9-1.4-.3-3,0-3.9,1-.4.4-.6,1-1.1,1.3-1.8,1.4-5.9-1.9-7.9-2-1.7-.1-3.6.8-4.1,2.4-1,3.3,2.2,6.7,4.3,8.8,4.7,4.7,9.8,9.1,14.4,13.9,1.8,1.8,3.5,3.9,3.9,6.4-2,.6-4.1-.7-5.8-2-3.9-2.9-7.7-5.8-11.6-8.7-1.8-1.3-3.6-2.7-5.8-3.1-2.7-.5-5.4.9-4.5,4,.7,2.5,3.2,5.1,5.1,6.8,4.7,4.1,9.2,8.1,14.1,11.8,1.9,1.4,4.5,3.4,5.1,5.9-3.4-1.2-6.8-2.5-10.3-3.7-1.2-.4-2.4-.9-3.6-1.1-1.3-.3-2.8-.3-3.7.6-.8.8-.9,2.2-.4,3.2.8,1.9,2.4,3.9,4.1,5.1,9.5,6.6,19.7,12.1,29.1,18.7Z"></path>
  <path class="cls-25" d="m1357,662c.4-5.9,1.5-11.8,3.6-17.3,1.3-3.6,3.6-8.8,7.8-9.7,3.5-.7,3.4,2.7.2,3.9-2.4.9-3.6,7.5-4.2,9.6-1.1,4-.9,9.6-1.3,13.7-.4,3.8-6.3,3.7-6-.2Z"></path>
  <path class="cls-43" d="m1761.5,1139.7c-.6,3.6-23.1,4-154.9,4s-156.6.5-157.4-4c-.7-3.5,31.9-4,156.2-4s157.1-2.1,156.1,4Z"></path>
  <path class="cls-43" d="m1397.1,1139.7c-.3,3.6-11.3,4-75.7,4s-76.5.5-76.9-4c-.3-3.5,15.6-4,76.3-4s76.8-2.1,76.3,4Z"></path>
  <path class="cls-11" d="m1735.5,724.8c0,1.2,41.4-5.9,46.1,7.1,4.7,13-30.4,212.7-35.5,216.5-4.7,3.5-5.9,5.9-34.3,5.9s23.7-229.5,23.7-229.5Z"></path>
  <path class="cls-19" d="m1540,1113.5c0-3.9.3-9.8.8-10.9,1.4-2.7,64.1-54.8,64.1-54.8l-16-22.8s-59.9,71.7-60.7,75.1c-.7,2.8-1.4,11.7-.6,14.4,0,0,0,0,0,0-.8,1,0,8.8,0,9.7s.8,1.9.8,1.9c0,0-1.6,6.8-.8,6.8h1.6s1.6,9.4,11.3,9.7c12.1.4,12.1-8.9,12.1-8.9,0,0,4.2,1.4,4.2-2.5s3.1-17.3-16.7-17.8Z"></path>
  <rect class="cls-13" x="1585.5" y="967.2" width="17.8" height="65.2"></rect>
  <path class="cls-19" d="m1583.6,1032.9s-1.8-34.8,0-35.8c1.8-1,20.5-2.1,21.3,0,.9,2.1,0,34.8,0,34.8l-21.3,1Z"></path>
  <path class="cls-52" d="m1576.9,1027.4s-88.6,64.3-91.5,68.2c-2.9,3.9-2.9,19.5-1,19.5s10.7,0,10.7-1v-11.7l92.5-50.6s13.6,1,16.6,0c0,0,116.8,52.6,116.8,54.5v8.8s10.7,0,11.7-1c1-1,1-14.6-1-16.6-1.9-1.9-119.8-72-119.8-72,0,0,0-13.6-1-14.6s-32.1-1-34.1,1c-1.9,1.9,0,15.6,0,15.6Z"></path>
  <path class="cls-52" d="m1483.4,1113.1s10.7,0,11.7,1c1,1,0,8.8,0,9.7s-1,1.9-1,1.9c0,0,1.9,6.8,1,6.8h-1.9s-1.9,9.7-13.6,9.7-11.7-8.8-11.7-8.8c0,0-3.9,0-3.9-3.9s1.9-17.5,19.5-16.6Z"></path>
  <path class="cls-19" d="m1467.8,1132.7c-.7,0-1.2-.5-1.3-1.2,0-.3,0-.6,0-1,0-7.7,6.2-13.9,13.9-13.9s13.9,6.2,13.9,13.9-.6,1.3-1.3,1.3-1.3-.6-1.3-1.3c0-6.3-5.1-11.4-11.4-11.4s-11.4,5.1-11.4,11.4,0,.5,0,.8c0,.7-.5,1.3-1.2,1.3,0,0,0,0,0,0Z"></path>
  <path class="cls-52" d="m1732.1,1113.1s-10.7,0-11.7,1,0,8.8,0,9.7,1,1.9,1,1.9c0,0-1.9,6.8-1,6.8h1.9s1.9,9.7,13.6,9.7,11.7-8.8,11.7-8.8c0,0,3.9,0,3.9-3.9s-1.9-17.5-19.5-16.6Z"></path>
  <path class="cls-19" d="m1747.7,1132.7s0,0,0,0c-.7,0-1.2-.7-1.2-1.3,0-.3,0-.5,0-.8,0-6.3-5.1-11.4-11.4-11.4s-11.4,5.1-11.4,11.4-.6,1.3-1.3,1.3-1.3-.6-1.3-1.3c0-7.7,6.2-13.9,13.9-13.9s13.9,6.2,13.9,13.9,0,.6,0,1c0,.7-.6,1.2-1.3,1.2Z"></path>
  <path class="cls-52" d="m1668.8,1113.5s-8.9,0-9.7,1,0,8.8,0,9.7.8,1.9.8,1.9c0,0-1.6,6.8-.8,6.8h1.6s1.6,9.4,11.3,9.7c12.1.4,12.1-8.9,12.1-8.9,0,0,4.2,1.4,4.2-2.5s3.4-18.6-19.5-17.8Z"></path>
  <path class="cls-19" d="m1681.7,1133.2s0,0,0,0c-.7,0-1.2-.6-1.2-1.3,0-.3,0-.5,0-.8,0-6.3-4.1-11.4-9.2-11.4s-9.2,5.1-9.2,11.4-.6,1.3-1.3,1.3-1.3-.6-1.3-1.3c0-7.7,5.3-13.9,11.7-13.9s11.7,6.2,11.7,13.9,0,.6,0,.9c0,.7-.6,1.2-1.3,1.2Z"></path>
  <path class="cls-52" d="m1604,1025s65.8,71.7,66.6,75.1c.8,3.4,1.6,15.6,0,15.2s-11.8,1.7-11.8,1.7c0,0,0-12.7-.8-14.3-1.4-2.7-70-54.8-70-54.8l16-22.8Z"></path>
  <path class="cls-2" d="m1655,1080.7c-.3,0-.7-.1-.9-.4l-38.4-42.6c-.5-.5-.4-1.3,0-1.8.5-.5,1.3-.4,1.8,0l38.4,42.6c.5.5.4,1.3,0,1.8-.2.2-.5.3-.8.3Z"></path>
  <path class="cls-19" d="m1719.5,988.1c-1.2-2.4-35-19.3-36.2-16.9,0,0-.3.3-.8.9-3.6-2.1-6.7-4-7.8-4.8-3.4-2.2-39.1-9.9-52.6-12.8.5-6,.9-12.2.9-12.2l-85.6,1.2s-2.4,12.1,0,14.5c.7.7,4.5,1.7,9.5,2.8l-.8,3.8c-2.4-.2-4.4-.1-5.1.6-2.4,2.4-6,15.7-3.6,19.3,2.4,3.6,12.1,8.4,15.7,9.6,3.6,1.2,16.9,0,19.3-2.4,2.4-2.4,4.8-16.9,3.6-19.3-.4-.8-2.2-1.6-4.4-2.3l1.1-4.2c3.9.8,6.6,1.4,6.9,1.7,1.2,1.2,0,7.2,1.2,8.4.9.9,19.3,1.2,20.5,0,1.2-1.2,0-7.2,1.2-8.4,1.2-1.2,16.9-1.2,18.1-3.6.4-.8.8-2.4,1.2-5.8,19.9,4.2,48.4,10.6,50.9,12.2,1.2.8,4.3,2.7,7.9,4.9-.5,1.2-.6,2.4.3,3.3,2.4,2.4,28.9,21.7,32.6,20.5,3.6-1.2,7.2-8.4,6-10.9Z"></path>
  <path class="cls-11" d="m1421.5,897.7s-14.5,12.1,28.9,31.4c43.4,19.3,278.6,28.9,289.5,18.1,10.9-10.9,16.9-150.8,13.3-159.2-3.6-8.4-185.3-9.2-185.3-9.2l-146.4,118.9Z"></path>
  <path class="cls-40" d="m1457.7,913.3c9.6-14.5,94.1-21.7,94.1-21.7l-115.1-6.3-15.1,12.3s-14.5,12.1,28.9,31.4c1.5.7,3.2,1.3,5.2,2-1.7-3.3-4.1-8.4,2.1-17.6Z"></path>
  <polygon class="cls-28" points="1587.6 897.6 1613.6 914.1 1677.5 911.8 1724.9 834.9 1639.7 828.9 1587.6 897.6"></polygon>
  <path class="cls-5" d="m1507.1,771s20.1-18.9,26-3.5c0,0-4.7-11.8,10.6-16.6,0,0,13-37.9,20.1-61.5,7.1-23.7,25-27.9,39-34.3,13-5.9,24.8-11.8,24.8-11.8,0,0,5.3-7.9,13-8.3,7.8-.4,52.1-4.7,52.1-4.7,0,0,8.3-2.4,9.5,2.4,1.2,4.7,1.2,9.5,1.2,9.5,0,0,52.1,30.8,60.3,47.3,8.3,16.6-56.8,136.1-56.8,136.1l-121.9,9.5-59.2-52.1-18.9-11.8Z"></path>
  <path class="cls-13" d="m1573.9,695.7c-.3-1.7-3.1-1.3-3,.4,1.8,19,0,38.2-6.5,56.2-6.1,16.5-17,31.4-18.5,49.3-.2,2.4,3.9,3,4.2.6,2.7-19,14.2-34.7,20-52.7,5.6-17.4,7-35.8,3.8-53.8Z"></path>
  <path class="cls-14" d="m1627.5,680.9c-4.8,8.4-9.4,16.9-14.1,25.4-4,7.2-7.2,14.3-6.4,22.7.4,4.4,1.3,8.7,1,13.1-.3,4.7-1.6,9.3-3.8,13.4-1.9,3.6-4.7,6.4-7,9.7-2.2,3.2-2.3,6.8-2.8,10.5-.4,2.7-1.2,4.9-2.7,7.1-1.2,1.8-2.5,3.4-3.2,5.5-1.4,3.9-.7,8.2,0,12.2.2,1.1,2.1.8,2-.3-.4-2.6-.8-5.2-.6-7.7.2-3.2,1.7-5.5,3.5-8.1,2.8-4.1,2.9-7.9,3.7-12.7.9-5.4,5.4-8.8,8.1-13.3,2.5-4.1,4.1-8.8,4.7-13.5.7-5.2-.2-10.2-.7-15.3-.6-6,.6-11.3,3.3-16.7,5.1-10.5,11.3-20.5,16.9-30.8.7-1.3-1.3-2.3-2-1.1Z"></path>
  <path class="cls-13" d="m1702.4,642c-7.3,9.1-16,18.9-24.7,26.6-2,1.8-4,3.5-6.1,5.1-1.6,1.2-6.1,6.1-8.3,6.1-2.4,0-4.2-4.6-5.3-6.3-2.2-3.2-4.3-6.5-6.6-9.6-1.4-1.9-4.4-.2-3.2,1.9,2.1,3.7,4.4,7.3,6.7,10.9,1.7,2.7,3.2,6,5.6,8,.6.5,1.4.9,2.2.6,7.9-3,15.8-11,21.9-16.8,7.3-6.9,14.8-15.7,20.2-24.2,1.3-2-.8-4.3-2.4-2.4Z"></path>
  <path class="cls-13" d="m1627,661.5c-2.7,1.4-5.2,2.8-7.8,4.4,1.8-7.2,4.5-15.2,8.6-21.6,1.1-1.7-1-2.4-2.3-.7-6,7.6-9.7,16.7-11.4,26.3-.3,1.6,1.4,3.4,3,2.3,3.9-2.5,8-4.7,12-7,2.4-1.4.3-5-2.2-3.7Z"></path>
  <path class="cls-14" d="m1569.2,710.7c-3.6-7.4-4.9-15.4-3.9-23.5.1-1-1.6-1.2-1.7-.2-1.4,8.5,0,17.1,3.9,24.8.6,1.2,2.4.1,1.8-1Z"></path>
  <path class="cls-13" d="m1680.5,731.6c-10.3-2.7-28-6.5-38.4-8.1-2.7-.4-3.5,3.7-.8,4.1,10.5,1.7,28.1,5.8,38.4,8.2,2.7.6,3.6-3.5.9-4.2Z"></path>
  <path class="cls-30" d="m1692.9,630.2s5.9,0,7.1,1.2c1.2,1.2-4.2,5.1-4.2,5.1l-2.9-6.3Z"></path>
  <path class="cls-30" d="m1666.7,545c-.6,0-1.2-.2-1.5-.7-.1-.2-3.5-5.3-5.2-12-2.3-9.2-.5-16.9,5.2-22.4.7-.6,1.7-.6,2.4,0,.6.6.6,1.7,0,2.3-11.9,11.3.3,30.1.4,30.3.5.8.3,1.8-.5,2.2-.2.2-.5.2-.8.3Z"></path>
  <path class="cls-30" d="m1665.5,544.5c-.6-5.2-4.4-8.7-3.8-14.6.9-8.6,7.4-16.4,15.8-19.1,4.8-1.6,10-1.6,15.1-1.5,4.7,0,9.4,0,14.1,0,2.9,0,5.8,0,8.4,1.3,3.7,1.8,6.7,3.1,8.1,6.8,1.4,3.8,3.2,8.3,3.8,13.6,9.5-.7,18.9,8.3,16.3,18.3,3.9,4.6,4.1,12.4,2.4,15.8-2.9,5.8,1.8,6.9,3.7,12.1,1.2,3.2.7,5.7-.9,8.7-4.1,7.7-10.2,14.8-17.2,20-6.4,4.8-26.2,14.9-26.2,14.9-13.7,1.2-35-39.5-35-39.5-.4-3.5-.9-7-1.3-10.6-1-7.9-1.9-15.8-2.9-23.7-.1-.9-.2-1.7-.3-2.6Z"></path>
  <path class="cls-4" d="m1696.5,635.9c-.7-2.9-.4-5.7.6-8.6,2.5-7.3,24-31.9,24-31.9,0,0-22.7,4.1-36.3,9.8-9.1,3.8-18.7,7.8-25.4,10.6-5.1,2.2-4.6-1.4-4.8-1.1-.3.4-4.5,5.9-4.8,6.3-6.8,9.1-14.1,18.2-17,29.4-1.9,7.4-1.7,16.6-.9,24.2l17.3-13.6s36.9-15.9,47.3-25.1Z"></path>
  <path class="cls-4" d="m1730.9,594.7c-1.9,19.6-16.7,17.7-19.1,16.5-1.7-.9-1.9-1.3-1.9-1.3-8.6,11.8-19.1,17.7-30.6,18.3-6.4.3-13.1-1-20-3.9-1.2-.5-2.4-1-3.6-1.6-6.5-3.2-18.7-11.9-20.4-20.1,0-.2,0-.5-.1-.7-2.1-16.1,33.2-62.2,33.2-62.2,4.3-1.9,11.7-1.2,14.4,0,2.7,1.2,10.1,2.9,13.5,6,1.2,4.3,3.1,14.6,9.8,20.2,1,.9,3.4,3.1,4.2,4.1,1.9,2.4.8,4.4.3,7.5-.5,2.9-.4,4.5-1.9,7.1-.6,1.1-1.4,2.3-1.1,3.6.3,1.7,3.3,3.5,4.3,3.4.4,0,.8-.3,1.1-.5,14-9.3,18.5-1,18,3.8Z"></path>
  <path class="cls-25" d="m1656,579.3c.5-.8,1.6-1.1,2.4-.7.8.5,1.7.9,2.5,1.4.8.5,1.2,1.5.7,2.4-.5.8-1.6,1.1-2.4.7-.8-.5-1.7-.9-2.5-1.4-.8-.5-1.2-1.5-.7-2.4Z"></path>
  <path class="cls-30" d="m1691.5,550.4c1.5,2,3.2,3.7,4.6,5.7,1.4,2.1,2.5,4.3,3.8,6.4,1.2,1.9-1.8,3.9-3,1.9-1.3-2.1-2.4-4.4-3.8-6.4-1.4-2-3.1-3.8-4.6-5.7-1.3-1.8,1.6-3.7,3-1.9Z"></path>
  <path class="cls-30" d="m1667.2,551.7c.6-.2,1-.6,1.1-1.2.2-.9-.4-1.8-1.3-2-.2,0-3.2-1.1-8.5.3-.9.2-1.5,1.2-1.2,2.1.3.9,1.2,1.4,2.1,1.2,4.5-1.2,6.8-.3,6.9-.3.3,0,.6,0,.9,0Z"></path>
  <path class="cls-30" d="m1727.2,519.7c-.5,0-1-.2-1.4-.6-10.7-12.7-40.5-6.7-40.8-6.6-.9.2-1.8-.4-2-1.2-.2-.9.4-1.7,1.3-1.9,1.3-.3,32-6.5,44,7.7.6.7.5,1.7-.2,2.3-.3.2-.6.3-.9.4Z"></path>
  <path class="cls-36" d="m1675.9,626.5c-12.5,3.4-19.4-1-29-9.4,5.4,2.7,17.1,3.4,26.9,3,7.8-.3,15.9-3.4,21.3-5.9,3.9-1.8-3.9,8.1-19.3,12.2Z"></path>
  <path class="cls-30" d="m1686.7,568.1c.7-.4,1.4-.5,2.1-.2,0,0,.2,0,.2,0,0,0,0,0,0,0,0,0,0,0,0,0,2.4.9,2.1,4.4.3,5.9-.3.4-.6.7-1.1.9-.5.1-1,.1-1.5,0,0,0,0,0-.1,0-1.2-.1-1.8-1-2-2.1-.6-1.6.2-3.7,1.8-4.6Z"></path>
  <path class="cls-30" d="m1653.1,559.1c1.4-1,3.5-.7,4.4.8,0,.1.2.3.2.4.2.5.2,1,0,1.5,0,0,0,.1,0,.2,0,0,0,0,0,0-.4.9-.9,1.7-1.6,2.3-1.5,1.2-3.6.3-4.2-1.3-.6-1.4,0-3,1.3-3.9Z"></path>
  <path class="cls-2" d="m1667.8,592.3c-7.3-.8-20.9-6.6-20.9-6.6-1.9,27.5,20.9,6.6,20.9,6.6Z"></path>
  <path class="cls-11" d="m1711.2,846.1c-15.4,3.5-56.8,17.7-67.4,30.8-10.6,13-13,61.5-13,62.7l-.5,14.4c56.3,2.3,105.2,1.6,110-3.2,7-7,11.9-68.1,13.5-111.8-11.5,1.6-31.8,4.7-42.5,7.1Z"></path>
  <path class="cls-11" d="m1739.6,856.8c-4.7,3.5-62.7,10.6-74.5,21.3-11.8,10.6-15.4,61.5-15.4,68.6s4.7,7.4,7.1,8.2c44.4,1.1,79.4,0,83.4-4.1,6.7-6.7,11.5-63.5,13.3-106.8-4.2,4.1-10.8,10.4-13.9,12.8Z"></path>
  <path class="cls-4" d="m1523.7,780.4s37.9,1.2,42.6,4.7c4.7,3.5,13,7.1,20.1,11.8,7.1,4.7,49.7,10.6,56.8,9.5,7.1-1.2,36.7,48.5,36.7,48.5,0,0-45.7-4.5-93.5-28.4-54.4-27.2-62.7-46.1-62.7-46.1Z"></path>
  <path class="cls-5" d="m1636.7,807.1s33.1,45,39,48.5c5.9,3.5,18.9,4.7,18.9,3.5s1.2-4.7,1.2-4.7c0,0,46.1,14.2,55.6-3.5,9.5-17.7,3.5-26,3.5-26,0,0,13-8.3,11.8-21.3-1.2-13-4.7-15.4-4.7-15.4,0,0,4.7-4.7,2.4-13-2.4-8.3,9.5-22.5,8.3-50.9-1.2-28.4-7.7-37.9-22.8-49.7-15.1-11.8-21,21.3-21,21.3l-20.1,28.4s-2.4,34.3-5.9,41.4c-3.5,7.1-11.8,9.5-5.9,20.1,0,0-10.6,7.1-2.4,14.2,0,0-31.9,1.2-35.5,1.2s-5.9-5.9-9.5-3.5c-3.5,2.4-13,9.5-13,9.5Z"></path>
  <path class="cls-13" d="m1737.9,805.3c-12-3.6-23.5-10.1-36.2-7.6-1.8.4-3.6.7-5.4.9,0,0,0,0-.1,0-4.1-2.2-4.1-7.7-1.2-10.9,1.1-1.2,2.8-1.8,4.1-2.8,1.9-1.4-1.1-3.6-2-4.6-1.3-1.4-2.1-3.2-1.8-5.1.6-3.6,4.1-6.2,6.3-8.8,2-2.4,2.6-5.5,3-8.5,1.2-10.5,1.9-21.7,4.9-31.8.7-2.3-1.8-2.2-2.6,0-2.1,6.1-3.8,12.3-5,18.7-1.1,6.1-.1,15.1-4.6,19.7-2.8,3-5.7,5-6.3,9.4-.6,3.6.6,6.9,2.9,9.5-3.1,1.8-5.2,5.8-5.5,9.2-.2,2.6.8,5,2.4,6.8-10.7,1.2-21.2,1.3-32.2,1-1.3-1.4-2.6-2.7-4-3.8-6.2-4.5-13.8,3.7-17.9,7.7-1.3,1.2.4,3.6,1.9,2.5,2.6-1.9,5.5-4.8,8.4-6,5-2,7.9,2.3,11.1,5.6,4.6,4.7,9.6,8.9,14.9,12.8,5.4,4,11.1,7.5,17,10.6,1.2.6,4.5,1.7,5.4,2.7,1.8,1.8,2.6,3.8,2,5.8-1.1,3.8-2.7,9.2-3.5,13-.6,2.5,1.7,2.3,2.6,0,1.7-4.9,3.9-10.6,4.6-15.8.3-2.3-.1-4-1.9-5.6-2.7-2.4-7.4-3.7-10.6-5.5-4.4-2.5-8.6-5.2-12.6-8.2-4.4-3.3-8.7-6.9-12.6-10.7-.4-.4-.9-.9-1.3-1.3,11.4,1,22.8,1.1,34.1-.8,7.2-1.2,13.7-3,21-1.3,6.2,1.5,12.1,4.2,18.3,5.6,2.8.7,5-1.7,2.3-2.5Z"></path>
  <path class="cls-14" d="m1767.3,697.8c-7.2-10.1-20.4-4.8-28.8.3-10.3,6.3-19.2,14.7-26.1,24.5-.7,1,.9,1.9,1.6,1,6.1-8.4,13.6-15.8,22.3-21.6,7.7-5.1,21.7-13.2,29.1-3.2.8,1.1,2.8,0,1.9-1.1Z"></path>
  <path class="cls-13" d="m1608.5,833.7s3.6-4.8,1.2-7.2c-1.2-1.2-86.8-50.7-90.5-56.7-1.4-2.3-19.3-112.2-24.1-115.8-4.8-3.6-125.4-2.4-127.9,1.2-2.4,3.6,20.5,108.6,21.7,107.3,1.2-1.2,164,70,164,70l55.5,1.2Z"></path>
  <path class="cls-16" d="m1383.8,1129.9c-1,6.7-20.3,6.6-54,8.4-33.7,1.8-76.1-1.4-80.9-6.2-4.8-4.8,17.4-7.6,24.1-9.5,6.8-1.9,42.1-22.5,48.9-33,2.2-3.4,7.9-12,9.3-16,3-8.4-2-95.2-2-95.2,9-3.6,50.8-14.4,50.8-14.4-2.2,90.5.5,122.7.9,129.2,1.2,19.5,3.7,31.6,2.9,36.7Z"></path>
  <path class="cls-30" d="m1383.3,1103.2s-31.9,12.4-42.5,8.5c-10.6-3.9-3.8-17.4-6.6-19.3-2.9-1.9-14.4-3.9-17.3-2-2.9,1.9-21.3,18.2-35.8,22-14.5,3.8-29.9,7.6-34.8,12.4-4.8,4.8-4.9,9.6-3.9,10.6,1,1,27.9,7.9,71.3,7.1,43.4-.7,70.4-2.5,72.3-5.4,1.9-2.9-1.8-24.1-2.7-33.7Z"></path>
  <path class="cls-28" d="m1313.7,1142.4c43.4-.7,70.4-2.5,72.3-5.4.8-1.2.6-5.9,0-11.6-6.4.8-17.4,2.1-32.7,3.7-26,2.8-23.2,5.7-47.3,7.5-21.3,1.6-53.5-1.7-63.9-4.9-.4,1.8-.2,3.1.3,3.6,1,1,27.9,7.9,71.3,7.1Z"></path>
  <path class="cls-42" d="m1538.5,844.6s-159.2-31.4-197.8-22.9c-38.6,8.4-36.2,50.7-36.2,88s-2.4,129.1-6,149.6c0,0,54.3,16.1,80.8,8.1,0,0,5.4-131.7,1.8-164.3,0,0,48.2,7.2,73.6,1.2,25.3-6,59.1-12.1,96.5-9.6,37.4,2.4-12.7-50.1-12.7-50.1Z"></path>
  <path class="cls-28" d="m1609.7,826.5c-1.2-1.2-88-51.9-90.5-56.7-1.1-2.2-16.4-94.5-22.6-112.8-.2-.8-.5-1.6-.9-2.4-.2-.4-.4-.8-.8-1-.5-.4-1.1-.4-1.7-.5-4-.4-8-.8-11.9-1-2.9-.1-5.9-.2-8.8-.3-4.1,0-8.1-.1-12.2-.2-5.3,0-10.7,0-16,0-4.9,0-9.7,0-14.6.2-3,0-6,0-9,.1-2.9,0-5.8.1-8.8.2-2.8,0-5.6.1-8.4.2-2.6,0-5.3.1-7.9.2-2.4,0-4.8.1-7.2.2-2.1,0-4.2.1-6.3.2-1.8,0-3.5.1-5.3.2-1.4,0-2.7,0-4.1.1-.4,0-2,.2-2.3.2-.9.1-1.7.2-2.5.6-.4.2-1,.6-.7,1.1,0,.1.2.2.3.3.3.2,1.2,0,1.5,0,1.4,0,2.7,0,4.1,0,2.1,0,4.2,0,6.3,0,2.7,0,5.4,0,8.1-.1,3.2,0,6.4,0,9.6-.1,3.6,0,7.1,0,10.7-.1,3.8,0,7.6,0,11.4-.1,3.9,0,7.8,0,11.7-.1,3.9,0,7.8,0,11.7,0,3.8,0,7.6,0,11.3,0,3.5,0,7.1,0,10.6,0,3.2,0,6.3,0,9.5.1,2.7,0,5.3.1,8,.2,2,0,4.1.2,6.1.3.6,0,1.1,0,1.7.2,1.1.1,2.2,0,2.9,1.1,0,.1.2.3.2.4,0,0,0,0,0,.1,5.3,25.2,23.6,112.9,21.5,113.9-2.4,1.2-92.9,1.2-92.9,1.2l6.2,6.1c48.5,20.6,125.3,54.2,125.3,54.2l55.5,1.2s3.6-4.8,1.2-7.2Z"></path>
  <path class="cls-42" d="m1524.7,906.7s-53.1-31.4-103.7-104.9l-31.4-39.8s18.1-24.1,36.2-31.4c18.1-7.2,35,4.8,49.5,16.9,14.5,12.1,47,35,78.4,56.7,31.4,21.7,112.1,48.4,112.1,48.4,0,0-46.9,63.7-60.2,60.1-1.2-.3-80.8-6-80.8-6Z"></path>
  <path class="cls-28" d="m1599.9,827.8s18.8,16.2,22.5,35.5c3.6,19.3,2,36.1-24.9,38.6-12.4,1.1-12.7,5.3-9.4,9.5,9.9.7,17.1,1.3,17.5,1.4,13.3,3.6,62.6-58.9,62.6-58.9,0,0-46.9-17.4-68.2-26h0Z"></path>
  <path class="cls-42" d="m1324.4,840.4s-14.5-16.9-6-36.2c0,0,39.8-21.7,65.1-44.6,25.3-22.9,40.5-37.6,63.1-29.7,22.6,8,31,46.5,31,46.5l-32.6,66.3-120.6-2.4Z"></path>
  <path class="cls-28" d="m1522.2,899.7c-41.2-24.1-74.9-63.7-102-102.3-1.3-1.9-4.5-.1-3.2,1.8,4.1,6.1,8.2,12.2,12.6,18.2-1.7-1.1-3.2-2.7-4.3-3.7-1.8-1.6-3.5-3.3-5.2-5.1-3.7-4-6.9-8.4-9.8-12.9-.7-1.1-2.4-.1-1.8,1,3.3,5.9,7.6,11.4,12.5,16.1,2.6,2.6,6.8,7.5,11.1,7.9.5.7,4.6,5,5.1,5.6,0,0-19.1-1.7-28.6-2.9-11.2-1.4-22.3-3.7-33.6-4.9-18.3-2-38.3-.8-53.6,10.6-1.6,1.2-.2,3.8,1.6,2.7,16.4-10.5,35.6-11.1,54.4-8.8,10.1,1.2,20,3.2,30.1,4.5,10.5,1.4,32.8,3.7,33.2,3.5,21.8,28.9,47.3,55.4,79.2,72.6,2.6,1.4,5-2.5,2.4-4Z"></path>
  <path class="cls-28" d="m1381.6,900.9c-7.4-.3-13.8-1.7-20.2-5.5-2-1.2-3.7,1.8-1.8,3.1,6.5,4.2,14.2,6.8,22,6.5,2.7,0,2.7-4,0-4.1Z"></path>
  <path class="cls-29" d="m1627.2,860.8c-12.1,16.5-35.9,5.2-49.7-2.4-16.9-9.4-33.1-20.4-49.5-30.7-16.5-10.4-33.1-20.7-49.6-31.1-8.3-5.2-16.5-10.6-24.9-15.6-7.2-4.3-14.4-5.9-22.6-3.6-9.3,2.6-17.2,8.6-24.7,14.4-8.3,6.4-16.3,13.1-24.3,19.8-.7.6.3,1.7,1.1,1.1,7.7-6.2,15.4-12.5,23.3-18.5,7.1-5.5,14.5-11.3,23.1-14.2,4.6-1.6,9.7-2.3,14.5-1.1,4.4,1.1,8.3,3.7,12.1,6.1,8.4,5.3,16.9,10.6,25.3,15.9,17,10.7,34.1,21.4,51.1,32.1,16.2,10.2,32.2,21.4,49.3,30.1,14.2,7.2,35.9,14.7,47.3-1.2.8-1.2-1.1-2.3-1.9-1.1Z"></path>
  <path class="cls-29" d="m1464.5,864.7c-21.1-3.3-42.4-4.8-63.7-5.6-10.8-.4-21.6-.6-32.4-.8-8.7-.2-18-.7-25.2,5-2.8,2.2-5.1,5.3-6,8.7-1,3.8,0,7.1,1,10.7.8,2.8.7,5-.5,7.7-.7,1.6-1.4,3.2-1.4,5,0,3.9,2,7.4,4.4,10.3,3.2,4.1,6.6,7.7,8,12.8,1.4,4.9,1.5,10,1.6,15.1.2,10.9.3,21.8.2,32.7-.2,24.6-1.3,49.2-3,73.7,0,1.1,1.7,1.1,1.8,0,1.7-20.8,2.7-41.6,3.1-62.4.2-10.3.3-20.6.2-30.9,0-9.1.6-18.9-1.6-27.8-1-3.9-2.7-7.3-5.2-10.4-3-3.7-7.1-7.6-7.3-12.7,0-2.4,1.2-4.1,2-6.3.6-1.6.7-3.3.4-5-.7-4.5-3-8.2-1.4-12.8,3.5-9.8,14.6-11.5,23.6-11.4,10.2,0,20.4.4,30.6.7,23.5.7,46.9,2.1,70.1,5.7,1.4.2,2.1-2,.6-2.2Z"></path>
  <path class="cls-18" d="m1385.9,705.4c-2.7-13.9-5.8-27.7-8.7-41.6-.6-2.6-4.6-1.5-4.1,1.1,2.8,13.9,5.5,27.8,8.6,41.6.6,2.7,4.6,1.5,4.1-1.1Z"></path>
  <path class="cls-18" d="m1389.1,720l-1.5-5.6c-.3-1-1.4-1.7-2.4-1.4-1,.3-1.7,1.4-1.4,2.4,0,.3,1.4,5.4,1.5,5.6.3,1,1.4,1.7,2.4,1.4,1-.3,1.7-1.4,1.4-2.4Z"></path>
  <path class="cls-11" d="m1521.3,915.3s20.1-10.6,58-13c37.9-2.4,54.4,7.1,54.4,13s-18.9,23.7-18.9,23.7l-86.4-8.3-7.1-15.4Z"></path>
  <path class="cls-40" d="m1537.4,907.7c-8.9,1.3-17.2,5.4-24.5,10.6-1.5,1.1,0,3.6,1.5,2.5,7.4-5,15.3-7.8,23.9-10.1,2-.5,1.1-3.3-.8-3Z"></path>
  <path class="cls-40" d="m1630,908.4c-2.3-1-4.1,1.9-2,3.4,9.7,6.8,10.4,22.3,9.3,33-.2,2.1,3.4,2.6,3.7.5,1.5-11,1.2-31.5-11-36.9Z"></path>
</svg>
